<mxfile host="app.diagrams.net" modified="2021-08-10T03:53:30.465Z" agent="5.0 (X11; Linux x86_64) AppleWebKit/537.36 (KHTML, like Gecko) Chrome/92.0.4515.131 Safari/537.36" etag="lpFrCoywD7l3WnofZY0V" version="14.8.1" type="github">
  <diagram id="KMvUo6AFVc-GteYF3y09" name="Page-1">
    <mxGraphModel dx="3143" dy="2390" grid="1" gridSize="10" guides="1" tooltips="1" connect="1" arrows="1" fold="1" page="1" pageScale="1" pageWidth="850" pageHeight="1100" math="0" shadow="0">
      <root>
        <mxCell id="0" />
        <mxCell id="1" parent="0" />
        <mxCell id="llgCV7L1ZfpWoRZDn74L-3" value="&lt;font size=&quot;1&quot;&gt;64&lt;/font&gt;" style="rounded=0;whiteSpace=wrap;html=1;strokeColor=#FF0000;strokeWidth=3;" vertex="1" parent="1">
          <mxGeometry x="115" y="110" width="20" height="140" as="geometry" />
        </mxCell>
        <mxCell id="llgCV7L1ZfpWoRZDn74L-4" value="&lt;font style=&quot;font-size: 10px&quot;&gt;128&lt;br&gt;x&lt;br&gt;128&lt;/font&gt;" style="text;html=1;align=center;verticalAlign=middle;resizable=0;points=[];autosize=1;strokeColor=none;" vertex="1" parent="1">
          <mxGeometry x="110" y="60" width="30" height="50" as="geometry" />
        </mxCell>
        <mxCell id="llgCV7L1ZfpWoRZDn74L-5" value="&lt;font size=&quot;1&quot;&gt;64&lt;/font&gt;" style="rounded=0;whiteSpace=wrap;html=1;strokeColor=#0000CC;strokeWidth=3;" vertex="1" parent="1">
          <mxGeometry x="140" y="110" width="20" height="140" as="geometry" />
        </mxCell>
        <mxCell id="llgCV7L1ZfpWoRZDn74L-6" value="&lt;font style=&quot;font-size: 10px&quot;&gt;128&lt;br&gt;x&lt;br&gt;128&lt;/font&gt;" style="text;html=1;align=center;verticalAlign=middle;resizable=0;points=[];autosize=1;strokeColor=none;" vertex="1" parent="1">
          <mxGeometry x="134" y="60" width="30" height="50" as="geometry" />
        </mxCell>
        <mxCell id="llgCV7L1ZfpWoRZDn74L-7" value="&lt;font style=&quot;font-size: 10px&quot;&gt;128&lt;/font&gt;" style="rounded=0;whiteSpace=wrap;html=1;strokeColor=#FF0000;strokeWidth=3;" vertex="1" parent="1">
          <mxGeometry x="165" y="110" width="20" height="80" as="geometry" />
        </mxCell>
        <mxCell id="llgCV7L1ZfpWoRZDn74L-8" value="&lt;font style=&quot;font-size: 10px&quot;&gt;64&lt;br&gt;x&lt;br&gt;64&lt;/font&gt;" style="text;html=1;align=center;verticalAlign=middle;resizable=0;points=[];autosize=1;strokeColor=none;" vertex="1" parent="1">
          <mxGeometry x="159" y="60" width="30" height="50" as="geometry" />
        </mxCell>
        <mxCell id="llgCV7L1ZfpWoRZDn74L-9" value="&lt;font size=&quot;1&quot;&gt;128&lt;/font&gt;" style="rounded=0;whiteSpace=wrap;html=1;strokeWidth=3;strokeColor=#00CC00;" vertex="1" parent="1">
          <mxGeometry x="190" y="110" width="20" height="80" as="geometry" />
        </mxCell>
        <mxCell id="llgCV7L1ZfpWoRZDn74L-10" value="&lt;font style=&quot;font-size: 10px&quot;&gt;64&lt;br&gt;x&lt;br&gt;64&lt;/font&gt;" style="text;html=1;align=center;verticalAlign=middle;resizable=0;points=[];autosize=1;strokeColor=none;" vertex="1" parent="1">
          <mxGeometry x="184" y="60" width="30" height="50" as="geometry" />
        </mxCell>
        <mxCell id="llgCV7L1ZfpWoRZDn74L-11" value="&lt;font size=&quot;1&quot;&gt;128&lt;/font&gt;" style="rounded=0;whiteSpace=wrap;html=1;strokeColor=#0000CC;strokeWidth=3;" vertex="1" parent="1">
          <mxGeometry x="215" y="110" width="20" height="80" as="geometry" />
        </mxCell>
        <mxCell id="llgCV7L1ZfpWoRZDn74L-12" value="&lt;font style=&quot;font-size: 10px&quot;&gt;64&lt;br&gt;x&lt;br&gt;64&lt;/font&gt;" style="text;html=1;align=center;verticalAlign=middle;resizable=0;points=[];autosize=1;strokeColor=none;" vertex="1" parent="1">
          <mxGeometry x="209" y="60" width="30" height="50" as="geometry" />
        </mxCell>
        <mxCell id="llgCV7L1ZfpWoRZDn74L-13" value="&lt;font size=&quot;1&quot;&gt;256&lt;/font&gt;" style="rounded=0;whiteSpace=wrap;html=1;strokeColor=#FF0000;strokeWidth=3;" vertex="1" parent="1">
          <mxGeometry x="240" y="110" width="20" height="70" as="geometry" />
        </mxCell>
        <mxCell id="llgCV7L1ZfpWoRZDn74L-14" value="&lt;font style=&quot;font-size: 10px&quot;&gt;32&lt;br&gt;x&lt;br&gt;32&lt;/font&gt;" style="text;html=1;align=center;verticalAlign=middle;resizable=0;points=[];autosize=1;strokeColor=none;" vertex="1" parent="1">
          <mxGeometry x="234" y="60" width="30" height="50" as="geometry" />
        </mxCell>
        <mxCell id="llgCV7L1ZfpWoRZDn74L-15" value="&lt;font size=&quot;1&quot;&gt;256&lt;/font&gt;" style="rounded=0;whiteSpace=wrap;html=1;strokeWidth=3;strokeColor=#00CC00;" vertex="1" parent="1">
          <mxGeometry x="265" y="110" width="20" height="70" as="geometry" />
        </mxCell>
        <mxCell id="llgCV7L1ZfpWoRZDn74L-16" value="&lt;font style=&quot;font-size: 10px&quot;&gt;32&lt;br&gt;x&lt;br&gt;32&lt;/font&gt;" style="text;html=1;align=center;verticalAlign=middle;resizable=0;points=[];autosize=1;strokeColor=none;" vertex="1" parent="1">
          <mxGeometry x="259" y="60" width="30" height="50" as="geometry" />
        </mxCell>
        <mxCell id="llgCV7L1ZfpWoRZDn74L-17" value="&lt;font size=&quot;1&quot;&gt;256&lt;/font&gt;" style="rounded=0;whiteSpace=wrap;html=1;strokeColor=#0000CC;strokeWidth=3;" vertex="1" parent="1">
          <mxGeometry x="290" y="110" width="20" height="70" as="geometry" />
        </mxCell>
        <mxCell id="llgCV7L1ZfpWoRZDn74L-18" value="&lt;font style=&quot;font-size: 10px&quot;&gt;32&lt;br&gt;x&lt;br&gt;32&lt;/font&gt;" style="text;html=1;align=center;verticalAlign=middle;resizable=0;points=[];autosize=1;strokeColor=none;" vertex="1" parent="1">
          <mxGeometry x="284" y="60" width="30" height="50" as="geometry" />
        </mxCell>
        <mxCell id="llgCV7L1ZfpWoRZDn74L-19" value="&lt;font style=&quot;font-size: 10px&quot;&gt;512&lt;/font&gt;" style="rounded=0;whiteSpace=wrap;html=1;strokeColor=#FF0000;strokeWidth=3;" vertex="1" parent="1">
          <mxGeometry x="315" y="110" width="20" height="60" as="geometry" />
        </mxCell>
        <mxCell id="llgCV7L1ZfpWoRZDn74L-20" value="&lt;font style=&quot;font-size: 10px&quot;&gt;16&lt;br&gt;x&lt;br&gt;16&lt;/font&gt;" style="text;html=1;align=center;verticalAlign=middle;resizable=0;points=[];autosize=1;strokeColor=none;" vertex="1" parent="1">
          <mxGeometry x="309" y="60" width="30" height="50" as="geometry" />
        </mxCell>
        <mxCell id="llgCV7L1ZfpWoRZDn74L-21" value="&lt;font size=&quot;1&quot;&gt;512&lt;/font&gt;" style="rounded=0;whiteSpace=wrap;html=1;strokeWidth=3;strokeColor=#00CC00;" vertex="1" parent="1">
          <mxGeometry x="340" y="110" width="20" height="60" as="geometry" />
        </mxCell>
        <mxCell id="llgCV7L1ZfpWoRZDn74L-22" value="&lt;font style=&quot;font-size: 10px&quot;&gt;16&lt;br&gt;x&lt;br&gt;16&lt;/font&gt;" style="text;html=1;align=center;verticalAlign=middle;resizable=0;points=[];autosize=1;strokeColor=none;" vertex="1" parent="1">
          <mxGeometry x="334" y="60" width="30" height="50" as="geometry" />
        </mxCell>
        <mxCell id="llgCV7L1ZfpWoRZDn74L-23" value="&lt;font size=&quot;1&quot;&gt;512&lt;/font&gt;" style="rounded=0;whiteSpace=wrap;html=1;strokeColor=#0000CC;strokeWidth=3;" vertex="1" parent="1">
          <mxGeometry x="365" y="110" width="20" height="60" as="geometry" />
        </mxCell>
        <mxCell id="llgCV7L1ZfpWoRZDn74L-24" value="&lt;font style=&quot;font-size: 10px&quot;&gt;16&lt;br&gt;x&lt;br&gt;16&lt;/font&gt;" style="text;html=1;align=center;verticalAlign=middle;resizable=0;points=[];autosize=1;strokeColor=none;" vertex="1" parent="1">
          <mxGeometry x="359" y="60" width="30" height="50" as="geometry" />
        </mxCell>
        <mxCell id="llgCV7L1ZfpWoRZDn74L-25" value="&lt;font size=&quot;1&quot;&gt;512&lt;/font&gt;" style="rounded=0;whiteSpace=wrap;html=1;strokeColor=#FF0000;strokeWidth=3;" vertex="1" parent="1">
          <mxGeometry x="390" y="110" width="20" height="60" as="geometry" />
        </mxCell>
        <mxCell id="llgCV7L1ZfpWoRZDn74L-26" value="&lt;font style=&quot;font-size: 10px&quot;&gt;16&lt;br&gt;x&lt;br&gt;16&lt;/font&gt;" style="text;html=1;align=center;verticalAlign=middle;resizable=0;points=[];autosize=1;strokeColor=none;" vertex="1" parent="1">
          <mxGeometry x="384" y="60" width="30" height="50" as="geometry" />
        </mxCell>
        <mxCell id="llgCV7L1ZfpWoRZDn74L-27" value="&lt;font size=&quot;1&quot;&gt;512&lt;/font&gt;" style="rounded=0;whiteSpace=wrap;html=1;strokeWidth=3;strokeColor=#00CC00;" vertex="1" parent="1">
          <mxGeometry x="415" y="110" width="20" height="60" as="geometry" />
        </mxCell>
        <mxCell id="llgCV7L1ZfpWoRZDn74L-28" value="&lt;font style=&quot;font-size: 10px&quot;&gt;16&lt;br&gt;x&lt;br&gt;16&lt;br&gt;&lt;/font&gt;" style="text;html=1;align=center;verticalAlign=middle;resizable=0;points=[];autosize=1;strokeColor=none;" vertex="1" parent="1">
          <mxGeometry x="409" y="60" width="30" height="50" as="geometry" />
        </mxCell>
        <mxCell id="llgCV7L1ZfpWoRZDn74L-29" value="&lt;font size=&quot;1&quot;&gt;512&lt;/font&gt;" style="rounded=0;whiteSpace=wrap;html=1;strokeColor=#0000CC;strokeWidth=3;" vertex="1" parent="1">
          <mxGeometry x="440" y="110" width="20" height="60" as="geometry" />
        </mxCell>
        <mxCell id="llgCV7L1ZfpWoRZDn74L-30" value="&lt;font style=&quot;font-size: 10px&quot;&gt;16&lt;br&gt;x&lt;br&gt;16&lt;br&gt;&lt;/font&gt;" style="text;html=1;align=center;verticalAlign=middle;resizable=0;points=[];autosize=1;strokeColor=none;" vertex="1" parent="1">
          <mxGeometry x="434" y="60" width="30" height="50" as="geometry" />
        </mxCell>
        <mxCell id="llgCV7L1ZfpWoRZDn74L-31" value="&lt;font size=&quot;1&quot;&gt;1&lt;/font&gt;" style="rounded=0;whiteSpace=wrap;html=1;strokeColor=#FF0000;strokeWidth=3;" vertex="1" parent="1">
          <mxGeometry x="465" y="110" width="20" height="20" as="geometry" />
        </mxCell>
        <mxCell id="llgCV7L1ZfpWoRZDn74L-33" value="&lt;span style=&quot;font-size: x-small&quot;&gt;1&lt;/span&gt;" style="rounded=0;whiteSpace=wrap;html=1;strokeWidth=3;strokeColor=#00CC00;" vertex="1" parent="1">
          <mxGeometry x="490" y="110" width="20" height="20" as="geometry" />
        </mxCell>
        <mxCell id="llgCV7L1ZfpWoRZDn74L-34" value="&lt;span style=&quot;font-size: x-small&quot;&gt;1&lt;/span&gt;" style="rounded=0;whiteSpace=wrap;html=1;strokeColor=#0000CC;strokeWidth=3;" vertex="1" parent="1">
          <mxGeometry x="515" y="110" width="20" height="20" as="geometry" />
        </mxCell>
        <mxCell id="llgCV7L1ZfpWoRZDn74L-35" value="&lt;span style=&quot;font-size: x-small&quot;&gt;256&lt;/span&gt;" style="rounded=0;whiteSpace=wrap;html=1;strokeWidth=3;strokeColor=#CC0066;" vertex="1" parent="1">
          <mxGeometry x="540" y="110" width="20" height="10" as="geometry" />
        </mxCell>
        <mxCell id="llgCV7L1ZfpWoRZDn74L-37" value="&lt;span style=&quot;font-size: x-small&quot;&gt;256&lt;/span&gt;" style="rounded=0;whiteSpace=wrap;html=1;strokeWidth=3;strokeColor=#00CCCC;" vertex="1" parent="1">
          <mxGeometry x="565" y="110" width="20" height="10" as="geometry" />
        </mxCell>
        <mxCell id="llgCV7L1ZfpWoRZDn74L-38" value="&lt;span style=&quot;font-size: x-small&quot;&gt;1&lt;/span&gt;" style="rounded=0;whiteSpace=wrap;html=1;strokeWidth=3;strokeColor=#333333;" vertex="1" parent="1">
          <mxGeometry x="590" y="110" width="20" height="10" as="geometry" />
        </mxCell>
        <mxCell id="llgCV7L1ZfpWoRZDn74L-50" value="" style="endArrow=none;html=1;strokeWidth=3;strokeColor=#FF0000;" edge="1" parent="1">
          <mxGeometry width="50" height="50" relative="1" as="geometry">
            <mxPoint x="122.99999999999955" y="30" as="sourcePoint" />
            <mxPoint x="162.99999999999955" y="30" as="targetPoint" />
          </mxGeometry>
        </mxCell>
        <mxCell id="llgCV7L1ZfpWoRZDn74L-51" value="Conv2D" style="text;html=1;align=center;verticalAlign=middle;resizable=0;points=[];autosize=1;strokeColor=none;" vertex="1" parent="1">
          <mxGeometry x="163" y="20" width="60" height="20" as="geometry" />
        </mxCell>
        <mxCell id="llgCV7L1ZfpWoRZDn74L-52" value="" style="endArrow=none;html=1;strokeWidth=3;strokeColor=#0000CC;" edge="1" parent="1">
          <mxGeometry width="50" height="50" relative="1" as="geometry">
            <mxPoint x="122.99999999999955" y="50" as="sourcePoint" />
            <mxPoint x="162.99999999999955" y="50" as="targetPoint" />
          </mxGeometry>
        </mxCell>
        <mxCell id="llgCV7L1ZfpWoRZDn74L-53" value="LeakyReLU" style="text;html=1;align=center;verticalAlign=middle;resizable=0;points=[];autosize=1;strokeColor=none;" vertex="1" parent="1">
          <mxGeometry x="163" y="40" width="80" height="20" as="geometry" />
        </mxCell>
        <mxCell id="llgCV7L1ZfpWoRZDn74L-54" value="" style="endArrow=none;html=1;strokeWidth=3;strokeColor=#00CC00;" edge="1" parent="1">
          <mxGeometry width="50" height="50" relative="1" as="geometry">
            <mxPoint x="237.99999999999955" y="10" as="sourcePoint" />
            <mxPoint x="277.99999999999955" y="10" as="targetPoint" />
          </mxGeometry>
        </mxCell>
        <mxCell id="llgCV7L1ZfpWoRZDn74L-55" value="BatchNormalization" style="text;html=1;align=center;verticalAlign=middle;resizable=0;points=[];autosize=1;strokeColor=none;" vertex="1" parent="1">
          <mxGeometry x="283" width="120" height="20" as="geometry" />
        </mxCell>
        <mxCell id="llgCV7L1ZfpWoRZDn74L-56" value="" style="endArrow=none;html=1;strokeWidth=3;strokeColor=#00CCCC;" edge="1" parent="1">
          <mxGeometry width="50" height="50" relative="1" as="geometry">
            <mxPoint x="237.99999999999955" y="30" as="sourcePoint" />
            <mxPoint x="277.99999999999955" y="30" as="targetPoint" />
          </mxGeometry>
        </mxCell>
        <mxCell id="llgCV7L1ZfpWoRZDn74L-57" value="Dropout" style="text;html=1;align=center;verticalAlign=middle;resizable=0;points=[];autosize=1;strokeColor=none;" vertex="1" parent="1">
          <mxGeometry x="293" y="20" width="60" height="20" as="geometry" />
        </mxCell>
        <mxCell id="llgCV7L1ZfpWoRZDn74L-58" value="" style="endArrow=none;html=1;strokeWidth=3;strokeColor=#CC0066;" edge="1" parent="1">
          <mxGeometry width="50" height="50" relative="1" as="geometry">
            <mxPoint x="237.99999999999955" y="50" as="sourcePoint" />
            <mxPoint x="277.99999999999955" y="50" as="targetPoint" />
          </mxGeometry>
        </mxCell>
        <mxCell id="llgCV7L1ZfpWoRZDn74L-59" value="Flatten" style="text;html=1;align=center;verticalAlign=middle;resizable=0;points=[];autosize=1;strokeColor=none;" vertex="1" parent="1">
          <mxGeometry x="293" y="40" width="50" height="20" as="geometry" />
        </mxCell>
        <mxCell id="llgCV7L1ZfpWoRZDn74L-60" value="" style="shape=curlyBracket;whiteSpace=wrap;html=1;rounded=1;strokeWidth=2;rotation=180;" vertex="1" parent="1">
          <mxGeometry x="690" width="30" height="320" as="geometry" />
        </mxCell>
        <mxCell id="llgCV7L1ZfpWoRZDn74L-61" value="Bottleneck all&lt;br&gt;features into&lt;br&gt;single vector" style="text;html=1;align=center;verticalAlign=middle;resizable=0;points=[];autosize=1;strokeColor=none;" vertex="1" parent="1">
          <mxGeometry x="720" y="135" width="90" height="50" as="geometry" />
        </mxCell>
        <mxCell id="llgCV7L1ZfpWoRZDn74L-64" value="" style="endArrow=none;html=1;strokeWidth=3;" edge="1" parent="1">
          <mxGeometry width="50" height="50" relative="1" as="geometry">
            <mxPoint x="-341.78" y="-253.99999999999997" as="sourcePoint" />
            <mxPoint x="-301.78" y="-253.99999999999997" as="targetPoint" />
          </mxGeometry>
        </mxCell>
        <mxCell id="llgCV7L1ZfpWoRZDn74L-65" value="InputLayer" style="text;html=1;align=center;verticalAlign=middle;resizable=0;points=[];autosize=1;strokeColor=none;" vertex="1" parent="1">
          <mxGeometry x="-301.78" y="-263.99999999999994" width="70" height="20" as="geometry" />
        </mxCell>
        <mxCell id="llgCV7L1ZfpWoRZDn74L-73" value="&lt;font style=&quot;font-size: 10px&quot;&gt;3&lt;/font&gt;" style="rounded=0;whiteSpace=wrap;html=1;strokeWidth=3;" vertex="1" parent="1">
          <mxGeometry x="47" y="-186.67000000000002" width="20" height="20" as="geometry" />
        </mxCell>
        <mxCell id="llgCV7L1ZfpWoRZDn74L-74" value="&lt;font size=&quot;1&quot;&gt;200&lt;/font&gt;" style="rounded=0;whiteSpace=wrap;html=1;strokeWidth=3;strokeColor=#CC0000;dashed=1;dashPattern=1 1;" vertex="1" parent="1">
          <mxGeometry x="72" y="-186.67000000000002" width="20" height="30" as="geometry" />
        </mxCell>
        <mxCell id="llgCV7L1ZfpWoRZDn74L-76" value="&lt;font size=&quot;1&quot;&gt;196,&lt;br&gt;608&lt;br&gt;&lt;/font&gt;" style="rounded=0;whiteSpace=wrap;html=1;strokeWidth=3;strokeColor=#333333;" vertex="1" parent="1">
          <mxGeometry x="97" y="-186.67000000000002" width="20" height="30" as="geometry" />
        </mxCell>
        <mxCell id="llgCV7L1ZfpWoRZDn74L-78" value="&lt;font style=&quot;font-size: 10px&quot;&gt;3&lt;/font&gt;" style="rounded=0;whiteSpace=wrap;html=1;strokeWidth=3;strokeColor=#67AB9F;" vertex="1" parent="1">
          <mxGeometry x="123" y="-189.17000000000002" width="20" height="120" as="geometry" />
        </mxCell>
        <mxCell id="llgCV7L1ZfpWoRZDn74L-79" value="" style="endArrow=none;html=1;strokeWidth=3;" edge="1" parent="1">
          <mxGeometry width="50" height="50" relative="1" as="geometry">
            <mxPoint x="16.5" y="-284.17" as="sourcePoint" />
            <mxPoint x="56.5" y="-284.17" as="targetPoint" />
          </mxGeometry>
        </mxCell>
        <mxCell id="llgCV7L1ZfpWoRZDn74L-80" value="InputLayer" style="text;html=1;align=center;verticalAlign=middle;resizable=0;points=[];autosize=1;strokeColor=none;" vertex="1" parent="1">
          <mxGeometry x="59.5" y="-294.17" width="70" height="20" as="geometry" />
        </mxCell>
        <mxCell id="llgCV7L1ZfpWoRZDn74L-81" value="" style="endArrow=none;html=1;strokeWidth=3;strokeColor=#333333;" edge="1" parent="1">
          <mxGeometry width="50" height="50" relative="1" as="geometry">
            <mxPoint x="16.5" y="-264.17" as="sourcePoint" />
            <mxPoint x="56.5" y="-264.17" as="targetPoint" />
          </mxGeometry>
        </mxCell>
        <mxCell id="llgCV7L1ZfpWoRZDn74L-82" value="Dense" style="text;html=1;align=center;verticalAlign=middle;resizable=0;points=[];autosize=1;strokeColor=none;" vertex="1" parent="1">
          <mxGeometry x="56.5" y="-274.17" width="50" height="20" as="geometry" />
        </mxCell>
        <mxCell id="llgCV7L1ZfpWoRZDn74L-83" value="" style="endArrow=none;html=1;strokeWidth=3;strokeColor=#67AB9F;" edge="1" parent="1">
          <mxGeometry width="50" height="50" relative="1" as="geometry">
            <mxPoint x="16.5" y="-244.17000000000002" as="sourcePoint" />
            <mxPoint x="56.5" y="-244.17000000000002" as="targetPoint" />
          </mxGeometry>
        </mxCell>
        <mxCell id="llgCV7L1ZfpWoRZDn74L-84" value="Reshape" style="text;html=1;align=center;verticalAlign=middle;resizable=0;points=[];autosize=1;strokeColor=none;" vertex="1" parent="1">
          <mxGeometry x="59.5" y="-254.17000000000002" width="60" height="20" as="geometry" />
        </mxCell>
        <mxCell id="llgCV7L1ZfpWoRZDn74L-85" value="" style="endArrow=none;html=1;strokeWidth=3;strokeColor=#660033;" edge="1" parent="1">
          <mxGeometry width="50" height="50" relative="1" as="geometry">
            <mxPoint x="-341.78" y="-234.13999999999996" as="sourcePoint" />
            <mxPoint x="-301.78" y="-234.13999999999996" as="targetPoint" />
          </mxGeometry>
        </mxCell>
        <mxCell id="llgCV7L1ZfpWoRZDn74L-86" value="Embedding" style="text;html=1;align=center;verticalAlign=middle;resizable=0;points=[];autosize=1;strokeColor=none;" vertex="1" parent="1">
          <mxGeometry x="-306.78" y="-243.99999999999997" width="80" height="20" as="geometry" />
        </mxCell>
        <mxCell id="llgCV7L1ZfpWoRZDn74L-88" value="" style="shape=curlyBracket;whiteSpace=wrap;html=1;rounded=1;strokeWidth=2;" vertex="1" parent="1">
          <mxGeometry x="-23" y="-310" width="30" height="250" as="geometry" />
        </mxCell>
        <mxCell id="llgCV7L1ZfpWoRZDn74L-89" value="Trajectory&lt;br&gt;Vector&lt;br&gt;Input" style="text;html=1;align=center;verticalAlign=middle;resizable=0;points=[];autosize=1;strokeColor=none;" vertex="1" parent="1">
          <mxGeometry x="-93" y="-210.00000000000003" width="70" height="50" as="geometry" />
        </mxCell>
        <mxCell id="llgCV7L1ZfpWoRZDn74L-90" value="&lt;font style=&quot;font-size: 10px&quot;&gt;64&lt;/font&gt;" style="rounded=0;whiteSpace=wrap;html=1;strokeWidth=3;dashed=1;" vertex="1" parent="1">
          <mxGeometry x="-143" y="65" width="30" height="200" as="geometry" />
        </mxCell>
        <mxCell id="llgCV7L1ZfpWoRZDn74L-92" value="" style="endArrow=none;html=1;strokeWidth=3;dashed=1;" edge="1" parent="1">
          <mxGeometry width="50" height="50" relative="1" as="geometry">
            <mxPoint x="-100.00000000000045" y="115" as="sourcePoint" />
            <mxPoint x="-60.000000000000455" y="115" as="targetPoint" />
          </mxGeometry>
        </mxCell>
        <mxCell id="llgCV7L1ZfpWoRZDn74L-93" value="Concatenate" style="text;html=1;align=center;verticalAlign=middle;resizable=0;points=[];autosize=1;strokeColor=none;" vertex="1" parent="1">
          <mxGeometry x="-60" y="105" width="80" height="20" as="geometry" />
        </mxCell>
        <mxCell id="llgCV7L1ZfpWoRZDn74L-94" value="" style="shape=curlyBracket;whiteSpace=wrap;html=1;rounded=1;strokeWidth=2;rotation=-90;" vertex="1" parent="1">
          <mxGeometry x="-144" y="240" width="30" height="90" as="geometry" />
        </mxCell>
        <mxCell id="llgCV7L1ZfpWoRZDn74L-95" value="Combines&lt;br&gt;inputs to&lt;br&gt;image dimension" style="text;html=1;align=center;verticalAlign=middle;resizable=0;points=[];autosize=1;strokeColor=none;" vertex="1" parent="1">
          <mxGeometry x="-183" y="300.00000000000006" width="110" height="50" as="geometry" />
        </mxCell>
        <mxCell id="llgCV7L1ZfpWoRZDn74L-96" value="1" style="rounded=0;whiteSpace=wrap;html=1;strokeWidth=3;" vertex="1" parent="1">
          <mxGeometry x="-313.78" y="-183.99999999999997" width="20" height="20" as="geometry" />
        </mxCell>
        <mxCell id="llgCV7L1ZfpWoRZDn74L-97" value="&lt;font size=&quot;1&quot;&gt;50&lt;/font&gt;" style="rounded=0;whiteSpace=wrap;html=1;strokeWidth=3;strokeColor=#660033;" vertex="1" parent="1">
          <mxGeometry x="-288.78" y="-183.99999999999997" width="20" height="40" as="geometry" />
        </mxCell>
        <mxCell id="llgCV7L1ZfpWoRZDn74L-98" value="&lt;font size=&quot;1&quot;&gt;196&#39;&lt;br&gt;608&lt;/font&gt;" style="rounded=0;whiteSpace=wrap;html=1;strokeWidth=3;strokeColor=#333333;" vertex="1" parent="1">
          <mxGeometry x="-263.78" y="-183.99999999999997" width="20" height="40" as="geometry" />
        </mxCell>
        <mxCell id="llgCV7L1ZfpWoRZDn74L-101" value="" style="endArrow=none;html=1;strokeWidth=3;strokeColor=#333333;" edge="1" parent="1">
          <mxGeometry width="50" height="50" relative="1" as="geometry">
            <mxPoint x="-342.78" y="-294.49999999999994" as="sourcePoint" />
            <mxPoint x="-302.78" y="-294.49999999999994" as="targetPoint" />
          </mxGeometry>
        </mxCell>
        <mxCell id="llgCV7L1ZfpWoRZDn74L-102" value="Dense" style="text;html=1;align=center;verticalAlign=middle;resizable=0;points=[];autosize=1;strokeColor=none;" vertex="1" parent="1">
          <mxGeometry x="-301.78" y="-303.99999999999994" width="50" height="20" as="geometry" />
        </mxCell>
        <mxCell id="llgCV7L1ZfpWoRZDn74L-103" value="" style="endArrow=none;html=1;strokeWidth=3;strokeColor=#67AB9F;" edge="1" parent="1">
          <mxGeometry width="50" height="50" relative="1" as="geometry">
            <mxPoint x="-341.7800000000004" y="-273.99999999999994" as="sourcePoint" />
            <mxPoint x="-301.7800000000004" y="-273.99999999999994" as="targetPoint" />
          </mxGeometry>
        </mxCell>
        <mxCell id="llgCV7L1ZfpWoRZDn74L-104" value="Reshape" style="text;html=1;align=center;verticalAlign=middle;resizable=0;points=[];autosize=1;strokeColor=none;" vertex="1" parent="1">
          <mxGeometry x="-299.78" y="-283.99999999999994" width="60" height="20" as="geometry" />
        </mxCell>
        <mxCell id="llgCV7L1ZfpWoRZDn74L-107" value="&lt;font style=&quot;font-size: 10px&quot;&gt;1&lt;/font&gt;" style="text;html=1;align=center;verticalAlign=middle;resizable=0;points=[];autosize=1;strokeColor=none;" vertex="1" parent="1">
          <mxGeometry x="-288.78" y="-203.99999999999997" width="20" height="20" as="geometry" />
        </mxCell>
        <mxCell id="llgCV7L1ZfpWoRZDn74L-108" value="&lt;font style=&quot;font-size: 10px&quot;&gt;1&lt;/font&gt;" style="text;html=1;align=center;verticalAlign=middle;resizable=0;points=[];autosize=1;strokeColor=none;" vertex="1" parent="1">
          <mxGeometry x="-263.78" y="-203.99999999999997" width="20" height="20" as="geometry" />
        </mxCell>
        <mxCell id="llgCV7L1ZfpWoRZDn74L-109" value="&lt;font style=&quot;font-size: 10px&quot;&gt;256&lt;br&gt;x&lt;br&gt;256&lt;br&gt;&lt;/font&gt;" style="text;html=1;align=center;verticalAlign=middle;resizable=0;points=[];autosize=1;strokeColor=none;" vertex="1" parent="1">
          <mxGeometry x="-243.77999999999997" y="-233.99999999999997" width="30" height="50" as="geometry" />
        </mxCell>
        <mxCell id="llgCV7L1ZfpWoRZDn74L-111" value="" style="endArrow=classic;html=1;strokeColor=#000000;strokeWidth=1;exitX=1.089;exitY=0.443;exitDx=0;exitDy=0;startArrow=none;startFill=0;exitPerimeter=0;" edge="1" parent="1" source="llgCV7L1ZfpWoRZDn74L-144">
          <mxGeometry width="50" height="50" relative="1" as="geometry">
            <mxPoint x="-472.28" y="8.639999999999986" as="sourcePoint" />
            <mxPoint x="-150" y="160" as="targetPoint" />
            <Array as="points">
              <mxPoint x="-210" y="-131" />
              <mxPoint x="-210" />
              <mxPoint x="-210" y="160" />
            </Array>
          </mxGeometry>
        </mxCell>
        <mxCell id="llgCV7L1ZfpWoRZDn74L-112" value="" style="shape=curlyBracket;whiteSpace=wrap;html=1;rounded=1;strokeWidth=2;rotation=0;" vertex="1" parent="1">
          <mxGeometry x="-380" y="-314.99999999999994" width="30" height="260" as="geometry" />
        </mxCell>
        <mxCell id="llgCV7L1ZfpWoRZDn74L-113" value="Driver&lt;br&gt;Action&lt;br&gt;Input" style="text;html=1;align=center;verticalAlign=middle;resizable=0;points=[];autosize=1;strokeColor=none;" vertex="1" parent="1">
          <mxGeometry x="-430" y="-209.99999999999997" width="50" height="50" as="geometry" />
        </mxCell>
        <mxCell id="llgCV7L1ZfpWoRZDn74L-118" value="&lt;font style=&quot;font-size: 10px&quot;&gt;16&lt;br&gt;x&lt;br&gt;16&lt;/font&gt;" style="text;html=1;align=center;verticalAlign=middle;resizable=0;points=[];autosize=1;strokeColor=none;" vertex="1" parent="1">
          <mxGeometry x="459" y="60" width="30" height="50" as="geometry" />
        </mxCell>
        <mxCell id="llgCV7L1ZfpWoRZDn74L-119" value="&lt;font style=&quot;font-size: 10px&quot;&gt;16&lt;br&gt;x&lt;br&gt;16&lt;br&gt;&lt;/font&gt;" style="text;html=1;align=center;verticalAlign=middle;resizable=0;points=[];autosize=1;strokeColor=none;" vertex="1" parent="1">
          <mxGeometry x="484" y="60" width="30" height="50" as="geometry" />
        </mxCell>
        <mxCell id="llgCV7L1ZfpWoRZDn74L-120" value="&lt;font style=&quot;font-size: 10px&quot;&gt;16&lt;br&gt;x&lt;br&gt;16&lt;br&gt;&lt;/font&gt;" style="text;html=1;align=center;verticalAlign=middle;resizable=0;points=[];autosize=1;strokeColor=none;" vertex="1" parent="1">
          <mxGeometry x="509" y="60" width="30" height="50" as="geometry" />
        </mxCell>
        <mxCell id="llgCV7L1ZfpWoRZDn74L-123" value="" style="endArrow=none;html=1;strokeWidth=3;strokeColor=#333333;" edge="1" parent="1">
          <mxGeometry width="50" height="50" relative="1" as="geometry">
            <mxPoint x="124" y="10" as="sourcePoint" />
            <mxPoint x="164" y="10" as="targetPoint" />
          </mxGeometry>
        </mxCell>
        <mxCell id="llgCV7L1ZfpWoRZDn74L-124" value="Dense" style="text;html=1;align=center;verticalAlign=middle;resizable=0;points=[];autosize=1;strokeColor=none;" vertex="1" parent="1">
          <mxGeometry x="164" width="50" height="20" as="geometry" />
        </mxCell>
        <mxCell id="llgCV7L1ZfpWoRZDn74L-125" value="&lt;font style=&quot;font-size: 10px&quot;&gt;256&lt;br&gt;x&lt;br&gt;256&lt;/font&gt;" style="text;html=1;align=center;verticalAlign=middle;resizable=0;points=[];autosize=1;strokeColor=none;" vertex="1" parent="1">
          <mxGeometry x="-144" y="15" width="30" height="50" as="geometry" />
        </mxCell>
        <mxCell id="llgCV7L1ZfpWoRZDn74L-126" value="&lt;font style=&quot;font-size: 10px&quot;&gt;3&lt;/font&gt;" style="rounded=0;whiteSpace=wrap;html=1;strokeWidth=3;" vertex="1" parent="1">
          <mxGeometry x="416.5" y="-230" width="23.5" height="130.67" as="geometry" />
        </mxCell>
        <mxCell id="llgCV7L1ZfpWoRZDn74L-127" value="" style="endArrow=none;html=1;strokeWidth=3;" edge="1" parent="1">
          <mxGeometry width="50" height="50" relative="1" as="geometry">
            <mxPoint x="339.9999999999993" y="-291.67" as="sourcePoint" />
            <mxPoint x="379.9999999999993" y="-291.67" as="targetPoint" />
          </mxGeometry>
        </mxCell>
        <mxCell id="llgCV7L1ZfpWoRZDn74L-128" value="InputLayer" style="text;html=1;align=center;verticalAlign=middle;resizable=0;points=[];autosize=1;strokeColor=none;" vertex="1" parent="1">
          <mxGeometry x="385" y="-301.67" width="70" height="20" as="geometry" />
        </mxCell>
        <mxCell id="llgCV7L1ZfpWoRZDn74L-129" value="" style="shape=curlyBracket;whiteSpace=wrap;html=1;rounded=1;strokeWidth=2;" vertex="1" parent="1">
          <mxGeometry x="309" y="-301.66999999999996" width="30" height="250" as="geometry" />
        </mxCell>
        <mxCell id="llgCV7L1ZfpWoRZDn74L-130" value="Image Input" style="text;html=1;align=center;verticalAlign=middle;resizable=0;points=[];autosize=1;strokeColor=none;" vertex="1" parent="1">
          <mxGeometry x="234" y="-186.66999999999996" width="80" height="20" as="geometry" />
        </mxCell>
        <mxCell id="llgCV7L1ZfpWoRZDn74L-131" value="&lt;font style=&quot;font-size: 10px&quot;&gt;256&lt;br&gt;x&lt;br&gt;256&lt;/font&gt;" style="text;html=1;align=center;verticalAlign=middle;resizable=0;points=[];autosize=1;strokeColor=none;" vertex="1" parent="1">
          <mxGeometry x="415" y="-284.16999999999996" width="30" height="50" as="geometry" />
        </mxCell>
        <mxCell id="llgCV7L1ZfpWoRZDn74L-132" value="RGB&lt;br&gt;Image" style="text;html=1;align=center;verticalAlign=middle;resizable=0;points=[];autosize=1;strokeColor=none;" vertex="1" parent="1">
          <mxGeometry x="344.78000000000003" y="-231.66999999999996" width="50" height="30" as="geometry" />
        </mxCell>
        <mxCell id="llgCV7L1ZfpWoRZDn74L-133" value="" style="shape=image;verticalLabelPosition=bottom;labelBackgroundColor=#ffffff;verticalAlign=top;aspect=fixed;imageAspect=0;image=data:image/png,iVBORw0KGgoAAAANSUhEUgAAALQAAAB7CAIAAABSET0EAAAgAElEQVR4Acy8B1RcV5YuzLwJb+afme43b9zBdtuWZCUkkTMUQSCRc845RxFEzjkXUOQoEBkkRM6IWMTKOecIFFnBss1bxfXS6+m2/dozs9bfe5111uVSdeuec7+z0/n2lTk9Pb24uHj79u3Flby5EuD4r6o/Ozt7+/bt6enp0dHRmzdv3r9//+bNm3fv3p1fvH3//eXZ+bs3H77/cHn5zVV7d3n55vLy/I/a2eXl2dWfby8v315evv/L+veXlxcfpNd8+93lxYfv319d/PTdt2++vXz3/Y+3N99Lr//xV4D7+XB5+f77y5PT8/OLt5Kjk+Pj4w8fPlxcXACT/1c1z+fn5wAGTk9PZdbX13d2dmAw2M6V7F3Jzs4OcPBX1aNQqN3d3a2tLTQaTSKRiEQikUTBU+hUNh+NpxBoLJZgn8ITMoQSquCAfXjKkpyyJGf0/9g4knOO5Jx7+Jf2DPGR4OyCuX/MPJDwji+4x6e84wuqUMw+PGVLjv+0PzxlH52zJW84R285R2+5Rxfcowv+0YXo6AxFoGzuITBYPAqNRaFQFAoFjUZvbm7+Vc3w3t4eAIbd3d319XUZGAyGx+PJZDKBQMDhcKQrwePxwMFfT08kEmk0GoFAwGKxLBZr/0rE+4dsgZh/cEyks4lsHkt8RBMeMvePaWIJWXBIEBwQBAd4oQQvlGCuerzgiMSTkHgSMvcv7A+JvH3KwRGWKyKJDzEc4fTWLuPoHMcX4XjiH+l5YoLgCC84wQtOCIIjovCYIjiiCg5p/AMMlY3Ek/n7EsnRiUgkOj4+ZrPZMBjsr2eGgTshEAgAGOBwuMz29jYGgyESiTgcDoPBEAgEIpGIxWLxf2WCwWBIJBIajUYgEDQaTSQSicVioWifK5ZwDk7RFCaWxqHyDogcEYV/QOTtE4VHBJG0YUXHWNExRiztsaJTokDayH9xTxQfE0QSnOCQefp2FUtOq6jB8g9I+8dXmDv8kx4jlGBFp1jhOVZ4jhNdEEVnJNEJVXhME0r2cJQdJJa/Lzk6PuXz+YeHh0wmc3Nz869smvE4HA4Aw+7urszW1hYWiyWRSAA4pKr66vgvv2kcAf+x/eXf+k98kkKhYLFYJBJJp9MPDg4ODw/F+4dc8THn4BRFoaFodDLvkMg9pApPCAIJmitGcMVw3j6ML9oR8naEvG3B/g7vCMW/wPHOcfxTPO8Yz5dIe94pnneO4/1wHsc/vjp5TOSe4nmnJOEFkiXa4wjI56fP1xa03O0mcfBdEQ8pEqOEhzj+MY5/jBYcowUSlPAQJTxE8o+Q/COE4BAp+uEMji/VUggiaw9FEoklh4eHLBbj4EDM4XH34FK1/UsFR/il3/gFn/8IBik4oFAogAYsFgsobQA4P3k9LI6IJ5Ck+oWIx+OxeBwKj0MT8HgKmUClEEhEBAIhXeUEIgaFJhGkUNva2iKTyWw2G4VCAUYBhUKRSKSPWopwJRgMhsFg/OTv4qWgJpPJW1tbDAZDfCUC4QFTdMo6ONnGI7bxSDJXgmed4dmnWM4xTnyyyxbuCPa3DwRzTFhKTw3s3Zsl3tEm580e5wLBPURzRViekMDZx3JOMZy3SO67XfoJ/uDtNp2HF0rQbDGGuk8XvKcLvtmjiPfEAtR7kWtF7O1Aw4xxyOY75u6RAMrgYFinZOEHBPMYxjqE7x9t8QRokWSXzV/nMl6zSfBT8bqAs8M/xPMvMBQxBsM8lpzt8zkH+/wDiYgp4EFhMAKJSCD88LRxONzH4eNwOCqVisFg8Hg8Go1msVgIBAKLxVJoVBgahSPgKTQqHIlAYdBEMolCo9LpdDKZjEGhyUQSHotDIZAUEhmLln79lwoAAxgM9ovBQcLiKFfgAIaEvUIGiojfRsLhGDSOgMfgsBQSmUahEtAYDApNwOEZDAaZTN7b2wPMFhKJJBAIKBQKcCMAjYXD4ZBIJAKB+JmR/Dg4hGdScBD2tglwAvcIy36DYZ1jOKc7zH04/2BXdAg7E5XNtljlBPRT0atHb9Z477Y572CcAziXj+ZwMRwhhnWKYr+FMd9uM8/hgpMdjgDJ20dz9vGMYxztmMh4u00UYM+PBqnrsk9MP40A2TaGjx3s7pzyNplcNPOMzPsWxTiDs09gIgmUx9/h8Imnx2sCUkYPZOOYtXHAWeUKUYJzNOkAh2afHZ4cCjj7+9x9iZAu5K3BYQSi1NsDRv3H4AAcQWDGMBgMnU5HoVB4PB6FQePIJBKdRqBSkGgUmUpBYzEwBBwwuEg44oeliydQSGQSQbqAf6n8l8BBxuGJeOliBzQHmoDHEAkEKoVEpxHJJBQGjYDBUQgkEYMl4gkIGJxIJGIwGAQCQSKRqFQqAoEAhoq6EmD8lCsBtNFPDeZHwcERnnIOTneIsG0CHM+RoJnnSOY5gnMKpYp2+Ps7IvGqkOpSHPog0Chrqnv9/HyN92aLfbHL2YdxeCg2B8XioxjHMOYFjPMexn23xdpHCA932QIEd5/EfQMnS7DMcyiZj31/kjRY8z9dFOTTrVQz7Zqx45unnE0uH8E8JbA/oBgXcNbZrkCyweW9plJp373p3J7WiXB8hlrcuhAssbkI4SmCKEKjGWeHZwcC7l8IDiKRCMRlWCwWUOckknR6SRSy1LIQpb45g8EAvDEGgwG4BB9nD4lE/ud8x/88OPBY3A/gwEn1PBaPk94liQjd3YFf3TePx+Ow2DQKlcdk0ShUCoUCLAg+n//HCBAIBCwWC7h7EomEwWCwWCygRT8O708OfhQcXMEP4NgiwDGcfTjjdI9xusc6hfHOVum8rX1Ry+q4Zthj+bCH/m15YyLGKv8MegWOPY4AweIiWAI442SXfgHjftjmvFmlCaTWgcXdYvBwvAs47RjNudhmiaCHHIMkr79zldcpc1NMtUqehKwfMTf5gj3mEYpxgWBewJhnW5yjDY5gjc3YPmJ5lMbf83sc0pq7fMJYE3H3hIe7BB4cRTuW/AAO8aGAwef+vOYADAqZTAaUK5lMltpyIhGLx+3t7RGJUnuEQqF2dnaIRCIcDt/d3SUQCJgrAZz3/x/AQcDhgfYRHEQy6eTsFIPDzs7Orq+vb25AV14vb0E352fn0Gj0wcHB+vr6ysrK0tLS1tYWDAbb2toaGRmh0+lsNhtwPgD9gUaj/wQQf/znn4NDKDjgC44FhycwInKLgEBxRNv0o03G6TbzFCn+Zp7E2D3eD4Fk3fJRU082Ma0IrkUtvuYfQ9kXO5wr9cDiwxmiXfrJNuPNBvPNa8bRMkuwKRJDefw1CmuXfiz9F/1wTywZJu3+zln71wGaSrm2ajkObs2Js2LiuoC3wzzcpZ7sMc53GOdbTMkGRwA7FdetvLzhoaP51FY3xaUFOQX75niDy4Pi6XsoytHh6YGALxZxAXBswuE/Y1bweDygFXA4HOB2YDAYGo0mVRJ4AofFZtIZBBz+8PCQTqezrmR/f5/FYqEwaBqDzuZyiGTSH0/gX3j8X9IcADLwWBwgBBKRRCHvHx6Aq6vU1dWVlZW1NDQ11TWMHz1WUVLu7Oy8uLiIi4uTl5fXvhJFRUUFBQVjY+Pt7W2JRALkVwCP9aP1/dFh/Ag4hGKR8Eh0eAonoTaIiF02f40uXqUdrzFON7lny3TuCp8OinD4wkNOJcVIs8Dx6VTTPH9/lXUGZe1vsXg7DN4OXbxFP11nXLymny4yDzf2JWN47LqAB+UKN2iH28zTZRoffn5Stfrq7+yUPovQ+8PTh9ql7jaQyJes3WUBc4Mp3qBItuinW/TTDdrhJk+0fcx3LIr+xFlRJ8tBNc02pDt36xvRIpv2GkveRJIkH8Gxz2fwuVJw/LRDCswMMCdoNFooFO7s7Hi4uYeHhgX4+Xt7evl6+6QmpxCJxNbWVmdnZ3d3dz8/P19fX09vr4amRiabRaZSfnQmf/7kfw84sFgpQIhEIoVCefPmTWlp6b1799TV1Q0NHqqrqunr6t25dbu2tvby8tLb2/vLL7/U1dXV0tICgUAGBgZycnIIBOL8/ByHw31UhnA4/Gfu+6fAcXB4CiNj1omIbTZnkc5fpB0uMc/mKfvb4uPmlek/OKhe81eSS9FTLbF260qd5HKW6JJVmmCDxoHSOJs08QbteIV+usQ8mWPtvxYL03rah1B7GwLxCk28zjpeZHLWjvnBHcX/w1Hxt5E615INtUpcrGojughLczzyCkewTBFCaUcbtOM18uG2YL99d/5LN61roToKqcZahQ7GFf79zO0lEWMBQ9hAEg8lpyKBUCziicQ8Jo+7BftJcAAhJYAP/FWkJpFIVlZWbt+8paGsoqqgKHvzluydu/a2dm/OLyDVNQ8ePFBRUVFQUJCXl//61s2klOTT8zM2l/Mz8/lT//qvgkOqNqROwv8Fxzfv3peVlcnJyYFAID2Q7r27sro6IAU5+ZaWlsvLSxcXFw0NjcePH9+/fx8EAqmqqurq6iIQCA6Hg0QiORwOFotFo9G/NJQVCsVigeTg8ARGxqySEBs8+iyDNc3YX2SejeN4qPP3sc1lvza7cy9a60GmvlatrXFj6CibOksVLVG4y1TWGoWzRhEuUySL1OMF5tEEg/2SjjOIC8gf651h02fI3DmGcIbDeMlG6qb5yFjf/vsQlft5FvJ5ViY1gY3YiXEe5jWPvUDjrdMlK5TDVdLBpugwtqtS5vFXd+L1v0zQ0ii306vwyFt9vnnOn8Zi1xAEseTsP4Jj76c0BwaDoVAogC+Px0v9/9PT0/n5eQ1lFV1NrUf6Boa6ehpq6iaPjS+/+z4vJ/f27duamppaWlr6+vqysrJJKcnvP3yDxv53hLIANgHIAP1H5H6MMtBoNJlMxmNxBByeTCQR8QQ0EiWNVGl0Jp1x+e13BXn5d2/fMTR4qKmuoaqsoq+rJ/9ArqGh4fLy0tPT8+7duyAQSFNT08jISElJSUNDY29vTyKRfMzP/rz3BARygOdFpVIlEolQCo2DA9HxweHJBnYPysa1r09NscnjTMEU43CCKICfvbHNCP/E6s61MNVrSer3wMYmrUGvuOQRLH2GxNgTS+YJ9HE4eZV1Ns84nmGLx7jM+P76u76Wtnmxg2TkHIc3QqYunwriXtT9xgckY3frfz3Rup39SL7IyqjGuxzR/4K/N0xCLPOF81Tua4pwAc/fEIhBsR6/cpP/MlbrWqq2QompRrlj4mzttIjwCgFfguNEh2cCgUgk5B8cCnkC7hZMCg5AgEcAOO+ANgVWNmBWcDjcwcHBysqKjrqGoa6ejrqGlqqaoryCs6PTseSooqxc/oGcuqqajpY2SFtHQU4+IyPj6OiIyWQCEQ2JREIikcAFsVgslUrF4aReLYVCwWAwZDIZDocD/s3H5NP/zXP8OTikYepV5hQIkKhUKhaLlfrDOLw0h4HDf8y3YBFIOon8/ftv6qtr5O7KGujp6+qAdHVAWhqa9+7KNjY2Xl5eBgcHKykpPXz4UElJSVtbW11d/ZeCA1g9eDweGJJEIhEIBEKhmMcRXnzzYXZ3BTLRZZ0R/Ay3NiHgj9D5oxTua6FIO8TuX82u34zUuJf38E71Y1CTZ93e8oroZJUnGkFhoVzxElWwyDgapwimecIhBk4zwf1+hIV+qk/qSOvCoWCMQ2vBrZpXxtyJNf+XYDWZULkb2QaKpeYP6zwaWaPhQ8VxfbXjDMIsgzVLZq+zD6fI5Lvexn/nfO/zGNU/pGkoVDxWKbMKf1U0ykOO4VCrWPLB6TuR8FAsEuwfCDg89tbO5sdnD8ACyAd+HOzHg4/gUFJQ1NLQ1FHX0NUBaaipuzg5H0uOINU1d27dNjR4qKWhCdLWuS97LyUp+ftvv8NhpAEgAoEAlhaFQmGxWGQyeXd3l0qlotFoAoGARqM/+gYAKIH9k58DB/A1qeW4ylgTCAQmkwnk7KTXRaLQSJQ0WCWSMHtwLo1xdiBphNTK3rylo66hpqKqqyO1HfLy8nV1dZeXlwEBAXJycoaGhkpKSurq6rq6ur8UHMCsYbHYnZ0dCoVydHQkvBI+X3h4frqA2TKJdr3poxvSVzyyz+ynM0aonEkG5a6L7v+yuHEjXE2xyORGlaF2s3sdYvm14HCKRJvAk9a44gUabxTHnqDzp0S8nPl+GRs5+QRLxQQbh6q4YQ5ufJ8a0lv2RaiRWo6DXJapTNCdaxk6ypXmD5tcI5cKvo57rJXmBV4fm+PTp2mMJQavfnHun80UZJxufxqj/Ic0VdUqE5VyC5+e1Fc8+CQRu46nSs4+iEVHYqFIvM9ncxlbO5skkjSgAAw0sGo/LtQf1RxKSkqamlJ/XzrDyiq21jZioaiqEqx4/4Ghrp6+ts5DkO69W7fTk5Ivv/mAR6EpJGkkTL8SACUEAgFYYMDDJZFIe3t7ACz29vb+Is2BRqOBFAWwTYdEIuFwOJDclBpCFBqPxTHIFAIag4UhWGTq+9PzpppapXsPTI0eqamogrR1NDU1FRUVm5qaLi8vfXx8bt68aWBgoKWlpa6urqOj80vBAQD8ozI8OjoSiUT7+/sHBxL2gWAGs37DTl0h9rFeoRcYudjPZQ5R6a+ouNvOmp87yn4RrHI3z+gPZQb67d5d1N0xGnMAgVoXCl8iMbNUzjiVO0JjjAqp+tlBf+P84H7SY8VkU5vqCPDORB8XoZTi8vfeKqr5tnpgx3+LVfw0RUUFbGLY6qxYav7rSA3ZeEun+pRu0uYEkzjDoOe96JXR//pX7g8+f6L8WZqyOsREo8rK9Xn8qFiqOVbQ5IOTDyKhRLpheCDg8Vnbu1AajQLYcTwe/8OOxFW+52Pg9lG1AGZFVVUVBAJpaGioq6vLP5Czs7E93D+oLK9QU1RSuHffQAdkqKN7/+btwvSsb08vBEw2fA8GuC/SBBoKBTxWJpNJJBJRKBQSiRQIBEB6SeozXDk3/2/NAeRShoeHp6enP16LyWQCVoqAw1PJFDwKjYMjaRg8E0+6vHhXnJN39/rXpkaPVJVVdHVARkZGDx48aG5uvry8jIiIkJWV1dPTA4FA6urqqqqqvxQcgMkEbCeFQjk8PBQIBGKxmC8UHLw56VweveOqrZFpoVXi4t5d3CekDtIo/bjd63bKf3CW/SJITTb78adlhtrtPmDY7CSDNcOgT9GoI2jcFJU5z98fopE6SNB/dlX79xC1a/FaKnnmFpDAzNddRVvDMm7Kv43UuZv26GGNg0LRw0+SFFSrHz/scHxQ8ujzZB3ZLEulFMfk8aY+0s66RJDa3yqje+NzH6XPYpQ+S1ZUqTLSqbV27owdP0C/wiCWUSTx0XuhQCL1Sff5XB5jew9Kofyw5fnH4PhoTT4efDQrCkqKuvp6mtpaqupqioqK7u7uF2fnleUVKvIKIDUNXXVNQ00dua9vZzxJ+ObwhIbBS5OWZDLyShgMBoVCATa/cDjc3NzcwMAAoJ+APBOwWf//BgeJRFpYWMjIyGhtbWWz2UwmE7AsQLaORCDSKFQ2hSZgso94wmO+6PLbS0hJudztu1qqairyCipKynp6ejdu3IBAIG/evImJiVFSUtLS0pJqxCv5peAAUshkMhmBQFAolIODAx6PJxAIODzu4Tdn3Rvj/279AFRkpVRqY1QXX0vcHGAQO/aWPzW/93vrGzdDtOTzLW9UmynWu2Uu9L2kURf5vH747taBpGpqtmkdOiXm5CwPyNjf+6cQud/HKmqUmGsXO2Sutrm0pcnY3LyTYnwjCaRfbWNQb/NpqoIy+KHBM1vdVjuZ6Pv38yw0Cl1dGpJqtyc2LgR+4Ky/0b/5B1/VzyLkP02SlyvTA9VaO7RHDbC3RrHIJQx1//iDQCAR8gUiMZfNoW7urBEIUqYE4JV/3PKkUKTq5M/NyvLqyj0FeW19PR1dkIaWVDE7OTlJDg6LC4tuf3Xd2sRMW1HFUt/IUE0rPzH18sMlj0gVsDlsNhuHwwEMI+DxM5lMOp0+PDycnZ09OTkJbHcDt/EXmRUSidTZ2RkZGdne3o5AIJaWliYmJnp7e1tbW4eHh1ubW6oqwX3Purpa2irzi2qKywY6uhIjY0BqGg9Buq4OjqbGJlZWViAQ6NWrVxKJJCgoSFlZWeNKtLS0tLW1fyk4AJWLwWC2t7cpFMrJiZQyIxKJhGKB4I3kJfr1r6zuKhca3ys0Nm6Jz92ZGGDi2ncXbzso/cby2q1Q3TsZZrdrreVrXTIW+/rwmFEKYQCD6IcjbVPTPMpKh5n4sP4KGbtbMgG3PkmQVykz0Sy1iZ2rkk20lXG6fSNR/266vkGNtWGjza08dUWwnv4zK9VGM5nQr28WmoCqvc2rIvKWumeERNfCp3+jf/MzT6XPQh/cSFOWK9XVb7CzaQ5rQs+8wqAWUGTx0Td8wfGVWeHz+Iwd2AaRKN2F+Mi3QiKRgOb/KXDIqyirgbTVtLW09HQVlBQtLCwO9w+aG5vufX1LQ1FZ+e59rQeKcl997W5mPdUz+KLjeVNtXWlpaXNzc19fX0dHx8DAwOLi4vz8/N7eXkdHR1RUVHt7O5fLJZPJQOT8k+Ag4gm4q90yHAZLwOFzsrJNjU0SE56WlZWVlpaOjo6OjIz09PSsrazWV1clBAfXZ6TmeHnYfvWFy81rxr//96d2VmWJcSMDvRcXF0Kx6Ojo6FhyxOfzP3z44OPjo6ysDGRIAWT8UnAAmwXb29urq6tUKvXt27fHx8dHkoOzQ+HZxf6rjSmdcMvfRKuq1DrqNIanbQ93MbCdqE3tANMbtvduBGn8Ph6kWGMDqvMqWBgcoZCG8OgRCsapMP2mp6VqtGf2So9zR5KM5acyYXc/TVVSKDU0anRxGUj4pwA1Gc/7/xKpJldopF9nqV1nIleuc7/SANRh+1WZwT+mKd8qNpQrNDUC+6YtNA0yYFFtFf+k//VX7vJ/CJO7la0pX/7QsMXJtiGkemNoGLGzCMfzJe8FAsmBeP9cIjoVMUnITRaVRCGRqWQKjULFY3F7O7vwPdjHfc0/MSvLqytK6moqaqpqKuqP9AxVldUsLa3ffff94urK/NxMaUZaT15BvrOL87XrXtdveF2/lmVr01pSEhcV3VADmZ2e6XnePTQ0NDo6mpubW1ZW8fTpU1tb26ysLAIOD9vdAx76fwDH5uamVJ+g0EK+YLCnt6qsfGNpeWFyeuLFyKuBIT9Pr4jgkObGppfDL/B4PI/HW1lbHR979ar7eXtG6lLG02dGmgiHR6JA+z3nRwUKX5V420JKsoanRsdfLw0MDM2OT68ur1xeXnp5eSkqKuro6GhpaampqQEu1Y/mOYhEIhKJBDwbIH7G4/FsNpvBYGxubhYUFPT29gIWdHV1dWNhmr45y9pZ6KyDqJmC5FKt70Jc5Rt943e7m+m4QQrlUbDH54/u3I9Rl8/Vl8t6aFnlXzTR+wpP7MbAw7tq/t5J/Ysnj5QKbfWbPGULzWRcPpcJv/PbVKXbhToGzfb6jS4ybl/L+Cn8bZiyXNlDFYi+RrPRpwXKX5Y+1O/yuV5mIpOg8EmWshbEVK/SOnkB3MOApwx3/N7w1uc2129EK1/P1rlbYawKtnFtieyAj76Erc3tIQTn33DFx0wGjQaD4qeGN/s6VsdG50cnFsen1ucWKVh8V0sbpBLMpFAxKDSPwwXSBxQadWdv9/j05PXKspKyqq6GjrEKyFQJZKCkbWlmyzw7hbOpomPBSm9Hs4NNtextspMty85U4GY+bKDyKiezJr/wVXfP0sT04swsh8Xl84Vdz3uqquv8A4LCwiKed3atLi4tTU8vTE5WlZT09/YJBAIymby2tiazvLz85s2b3e0dNpNVV1nl5+65Prc4Pzqxubj84nmvr5tHXFR0eVFxfW0dkUhksJh9w0Mb66tLL1/UBgW26uuw3Ow+mOt+Z6h66WqKtX9UYaJtpXxfVuH+727fVlRU/vrLrzo7nr19+9bd3V1JSQkEAmlra6upqf1MtAKYD8AnkoIWhWIymTMzM7ArsbS0DAwMHBsbe/nyZV1dXWqof4mTYbTiVyFq6taG2mrhj67lW2i0eiciOqsJ8GYE1jk+/pqR/O0IZfXix0YFNsFNKc82Xq9yhf1Y2P0Qh7/zVLuZafK7DJBmk8MXuSAZ+09kwu7+Lln1XqGBUZszqMFBxv2ajJ/S34Wr3ivRU6zV1Wx/9LsitetlJqCOwH9PM5RJUPk6T0O3ztSg2ip2sujVIaNodvTLx/dU/dWvhan9Lk4DVO+mX+PpVhM+iJwZgi7ObO/sv/v+9ORtXzXEU0kpSUUhSV3lqYtrWnTcy86e8d7B2tIKd1uHhKiYvc0tJByxvPSaTCZLrQyNSmPQRfvi+eXXcpoamlo6hopaxnJahoogO1sXJJ9fM9RtbvEozFC7XkWJYmp2aWt9aQS6fKQmdDRucLLPCI94/XJ0c35hZW6JzeRsrG+XlFY2NrX5B4QEB4cO9PUvzswO9/RQEPAAd9fOjmdAaL21tSUl+yAQCPgejMfhrs4vyt+RrSosQWxsbS4uv+zuC/bxa6iBLEzP1NfWra2tIdGo+Y3lgaH+1Rcviq3sZsyshI/NLvWNLjW1LtU1D0xMhx4bu8veN1TT0tY3NDc3v3dXtq6u7v379wEBAUAEC2gOTU3NnzIrwCYtCoUCEhtEIpHNZufl5bW1tW1ububm5sbGxk5PTwuFwomJiWw/j15zTZSf9ZK35xM9lcfu8tbVjo/qndyG0xroqEnxkXtG9qcGSp95K96I0jDP91TysYgsAxf2DDW8nvkf+rK/ctf4+qnJH5IfPm73USw1k3H6/a+iFb9KASkWWlh3Bhk1ecj43vlbX9V/D9eSK9DXqDEyfGZxqwT0oMxauzHgH+P1P3mqcy9fV6/K9HGVvW9X6gCDGNrU+Gudu/+i/9UX3mrqGbb3443vhOqH1qVM4DbGd7dHV6Bs3vHlu0tUSw9YXZ/k6rfn5lvs5hPu5X7Uf0MAACAASURBVDf3apxLpo0PDIf5+JfmFZBx+NLiEnBFJZPJ5PP5u7A9FAZ9/uZibHHuS23lm3rSXBdIFaStpOPu7kc+PMwoK/rdv/5jsLz8krnNqZXLpZ7ppY7+JUjz0Nyo1sYmLTQMOjmzNDY+MzrJZfPW17baWjtfjoxnZuVFRkZPjk+MDr8gIJEZsU8Ubt9ceb0MkAR2dnZ+YJ9z2RzY7h4BjXnR2//lJ79zsrBuAtfMjk1Eh4QV5uQuL71urG9YWVlhC/ijSzMzSzNLQ8MtfsH92obH9p6Xjywv9R5fWjtwjcznnb0cr93WV9TQ0zdSUlC8J3untbX18vIyLCxMVVVVXV1dS0tLQ0PjZ8DxMUUIhHYkEonL5XZ0dHh7e9fW1kZGRubn5w8NDQFheqKjzaCpJsbNbNHFOc9C39JTybjYXK/KNgFam705lz461bm4ahbooRll4lDmreSuaxvpYx0UZuofnP6s4Z+M7v/OXeOLcJByvvXjJi8Q2EbG5fN/C5X7PEbtftpj43of3WonGdcb/+Ct9Fmkjnyerlb1I9NOG7kyA5VKO80qz3+N0vntUx3ZLG1QhYlVrYd7U3w9DKodHKrhZq3lZmwU5Wie6qXga/gozrX0ZVvd+Iu+dej0HoYreXcpebcFbm7QMGC7+GPdfBMeGieFR0MXXsPWoM+bWjOTUvKzsksLCoMCAqHrGxQKBQ6HM9msjU0oh8ddhm1/pq34tb6Gpq6egbaB8j0lZycP8dv3BVXgR6oqwfJKG/YeDAPrSwvnSx3Dy0eP9u1tis3MUsLCXo+Ovx6fmJ+YYdJZy0tr4ErI4tJqaRnY0tL6xdBwX9dzIxBI5d7d582NdKqUEkAikRAIhMzOzg4CgaCSKUw6g8dk8VlsDpUe6hfwSFe/qqQs0MvHzdGppKi4ML8ACoUSyaTeV0OvN14vjY12pWR02jotm1qJbOzObWyppibrNrZjkbGWcsq6Grpq2rqaKsoG2hqNDXXffvutv7+/nJwckMDR0ZHmx35KcwAumJSUcJWxAcwKj8dbWFhITk728vJ6+vTpq1evBAJBb29vWVx0h7PlM1O9Ph+/ohAfdU91bbCLZV9U4HxVB59in1eSVdXo9yQsqDDYO9tN00QxtywjJiPFLS4qDlL4yWO5G97qN2O0dcosNcvMHtc6/g+/W78Lkbsdr6ma9ci41tW4wUPG+fr/9Hhw44mWfK42qPqhdaetUqmeRoWVUrGtTLDC53Hqctk6BpXGDo1egV2pzagNdS8fcFtbTGKc+mOQbZhHbEVmaFFaUl11Qm1d4/zySxSR+u57oeQUOjDc6Oo6amXRY2KcbGdfkpWLhG7vrW40Q+r8PbyC/fxL8gv2dnYZNGleEwho4XD4t99/N7U4e09XVQGkpqehZa5loPz1AxsTG/H522IwWE32npeS6mpw1IqhBcfS8cLR5cDOYs4I1BwaXJqePtk3sDw5tTQ9TyZSdrfhJcUVuXlFDo6uYWERdZBaFXmFxJiYQw6LTSURcHhAbeNwOCn7nMFg7O3skgjElYVFLoOJR6AO+cKMxOQnYRE+7h4JMU+qwVVNTU08Ho9Awk8tTI1NjIwMDhTGxs4VFdebmc052o0+1n9hbbaUnNCcmqKroaNt8Oi+kupjkPa9Lz5vrqt9//69r6+voqKilpaWnp6epqbmzyTBgGofYMVQqVQ8Hg+DwdBoNJ/Pn5mZMTY2DggI2NiQLqne3t6Cpwlgf89gRYVgLcMIP2/dBMdr2XaaEP8C7FglYrsfQcotb9R++BDkpBOY6R2bHGhmpe8W4h6Rm5TSVPX/ge5e91K9F6epUWigW2lmWe/9h3DNT/zk5VP1dUtNTOqd3PqfyHjL/Y3L3ZtxWnLZOqCqR1bPbOWLdNXLrWWzTWV8730Rr6FWZGhYaW5R7Ro5mNuO2zAMD3F09wrw8/fw80opzHYK85M10kuuqRuBoQZ2ceM4Bvb0HXn/YH70ZbKLVYquQryOQkVCbHrc09mRMQoW/7JvwMTQyMvVDb69w2Iw93Z2gbwOjUajUCh8oWBtY1VNR01dQ0n3gYKdloHBPVUXM3vJ+bucsoqvvvrKQRv0OrtgPSLmpakp1M1p0Fir1c5oqCQfnJf7orNrZWp6YWqORqGzmLzWlmeQ2saY6HgPN8+UpOTctIxjkYiKRmJgOySClCKOw+GkdSsbm1AylSIldSKQXAaTgicwSRQGkYyFIfw9vIz09EMDAkuLS+rq6phMJp6Im5waXV1/3dXXGx0dWVda0JybmuFi6qNxKzPAoaEyK7Eg8zcKinf1DB6oazqaPFa/daOzufm7774LCAgAghQdHR3VK/kpzQGAA4uVloUBCdnd3d2GhoaRkZH19fUnT56EhoYuLS0JhcLh4eGkJ08KYmJb8kpLEwv0H1vcDbbXqAi3bksp3hkrnlso7ZvpHphPSM5yivVxS/PXtNSJzogydnvkGONZ/nLkN8Z6n3ooX49RVC7QNKqzsm99cjveQcb+/tdPdJQLdLUrTUKmi/411FDG4c6NeN0HWSAdsLFFq+PdHF3VEpsvUx7JBCh+EQfSKDI1KLc2KnVOnIbUIJZBIX6WLo4hoQEOPq5+8ZFm/h6OcdGDa1DI8ETL6NISnMY9/3b/4l1nV6ujpW7RU+/mwtjkqND0p0nzE1Pw7Z3hvv4nEZGlBYVIOKKz41lLUzOVSmUwGMDyODs7e720oKb0wEhD7aGsvL2anom8lru18+m7b7Orq2U11GTv34VkpLwoyst1tHhipBpoJN9dnlhfmPU0MvxVT+/26urC1BydyiARaU2NbaUllRHhMVoa2v6+fnQCCQuDMXAYGgErZZdd1S5tbm5KwYFEo6hUKgqFwqDQm6trWytrmD04Do5MfZro7+UdERbe0NDQ399PpdMIJPza+uuhF/0TrxciEuMHh/vCg71tH6u72+spK99w9HdKqqv+va7BfSMTVW1dXcUHBvL3njU3vH//3sfHB9imV1dX//lQFkjkUalUAoEAh0tJ1Twer7a2NjExcWFhIT4+vrS0dG5ubm9vb3V11c3FNf1pUnlBSUf9Mwdf/y+9TRWyfaJGKluR852bO3n1/Rlp4JiolMCMpwH5CdpWj+LzkrKbsk1CHLu29h54e/3eU+OrGGW1Mh2Nskcxs43Glakyzpo3E4zUSh7q1lrlogeV8oNk7GSvJzy8l/lQs9LapMX968yHCkX2v08w+psQjf8dra2QY6pb5mRa5VcCGwLDlxS8navaIbn5yZoP1QLiQzLryjwSotKqq3MgTYPTq9soOk949ubtt53d7R7e1t191TU1Wf7erlGhYbMTk/Dtnf7n3SkJT0uLS169HIkICweiFanRp1KRSOT5+fnqymuF+7fNH+o9UlYxV9XWvCNv9dhSdPE2vabmM2VFRT3thvpqTzsLA+U71o9VXVwNwqPdRoaepz2NW5yagq4s9/cOUEhUMon+8sVYc1N7VGRsUEBwZnoGdGWVTiBsv16Eb21IyeEoFJlMljqkm9tbJIo0XuLz+bnZOdXgqqnRsZWFxZnxiddz8x7OLvGxcZWVlQMDAzwBH41FvZx4ObM00z00lJNbWF5UHO3v2wcpf16V399aq6Wp6hEcIatjJKdtqKtnaKSurHrry87WprOzs6CgIIAmCAKBgAyppqYmEok8OjoCSi8BOwdkushkMkBSx2AwQKoDi8WOjY0lJyf7+/sHBga+evWKzWb39vbm5mQEB7g215VWF+fYe1s/8Nc3qfDPX4A83xtvnBpbgZMgZe2m+rbRWdmBaUm+weHGdtYgFwPzWM8hPCW2f+D3fnqfRCnJ5mlp19glrw+mr059Emzzu5hH9wof6jW5FJBmnIdqZNxV/zZI/UGOhU61m8dI4m+fGtj3JQfOlMmE6f5jhM7NDHOlAif79qdVxNkS2NLDhJBHtrp+XiYhIfZpWZFOPjaaxjoFNeWvd/cGX02hEKR3J98cCSTjLwbjooMLS5JLKjK8PF0y0tKnJ6dwGGxrc0tURKSXh2dhfsH8/DzAGJUSda9ELBYvr76W01JW19PQ1lHX09JWUVK1tHPknZ5n1dV9pqyo/sjQzs7Gxc6qubq0taG8tqkoJj4gJSWurDDv5UD//NTk/OwClUwjk+jPu/rAlZDAgFA/H//x0bHZicm5yYn5yTFwaVF5aRmfz8dgMKurqzJbO9swBJxKpfJ4vIK8fB8vbwqeMD02PvlqdKi3LyQoOCIsvKOjo6KiYmFpkcFj9b8amFudfzE26ecT6OfiOdre0VNe3JqT3laUV5mdGxwYraz2UE5RR0tT11hXXU/l/rMWKZ8jLCxMUVHRyMhIQ0NDTU1NQUFBS0trd3dXLBYDBSwEAgHYVAN6JBIJkK2RSCSJRBJcydDQkIKCQmRkJBKJpFKpw8PDMdFhMZHe1haa9hZakaleX3nc9+6LKYbWFC1AEtuK7UL9p6fmMzNy/Z5G6dqZhoSFFlTmh5ZG6kXb5k4PRQ40m9WGXkvVvl2oowmxiVtti3/dp1cZ83n8o7t5Dx+2e8RstfrP1f9rzMP/HQtSLrGTK7Q06Qj8l1htv6nc+K26h42Bv31qcD/PwrDRz6I1Mm65KXq65Zb345AUtyfxti7OmqlpviGRTqGxPkPzL0Iz4sqfNc5A19kCoUi0/2po0MvFwcfDwczMMC42Jjc7Z3x0DI1EPe/s8vHy9vLwfPVyhMvlikQiBAIBFCiQyeTj4+OZpbmvle/d01JS1dHQAOmoqmk8srA4v7xMLSq59kBOy8DA18OzKj+vrRpcXZxTUphWXVUQFRkSFRk6Mjiw/HpxeWmFiCctzC/XVNfXQhrj45LcXT1WXi/PT03PTU5QcGhnO+vaGgjAzbgqh9zZJpCkJFApQtEYc1OzEP8A6MoqHoXu63ru5eFZXlq2vb3d2tq6srZKZdOnV+eHJ15CN3eDfIIzI5+2FZQ2p6f1F+W3ZmcP17fG+Mcoymoq3Ne8LyuvqXJf9uanNdUV33zzjbu7+/Xr17W1tRUUFIDtZiUlpbW1tZOTE2Cn+CP7HI1GE4lSn4hIJFKpVCKRuLi4mJiYOD8/Pzk56e7uHhoaOjY2JhaLh4eHiwpzEuODnkS5xkY7mnmpfxkqp9PkYNTmYlDnZA7x/dJVxSvR0z7I2j3DJ6wo1MJBOzjWwSPf+W6AsltjhOuzKPvegH+Il71dpGnQamvQ4GZU72vTFf6raCXZAj3DVketBhf9Fu+vs/T+LVb+XqHBnTxdUK31Pz2Rs37ua9Hp4zgYJBNx59MUFZN2F/1aB9vnIdbPon7l/iB/MPlJgbO9u4pP0MOswqC4nECLSFslfxPTrOD67Qni98fiy3c9Q322ZmbJIeFpUTHhQcEZGRmzs7NoNHpwcNDNzS0oKGhzc3N6ejo3NxcgN7HZbCKRyGQy17Y2FbTVFEDqqtrqKmqqSkoqRkaPL7+/LCwovXv7vrmRSVZ0fHtxeV1mdmNObmd5aVtVeXJCTFh40NjoyNTUxPj4JJ3OXF2Bdj7r2d2G10Eag3wCXvQPLM3OzU6MP42JNNTV3oJuMhhStwMKhcosLb/m8LhEInFhYUHIF+Aw2Oy0dF1NrdSniS8HBp0cHKvBVT09PTl5uevQDQKNNDw9srK13t7xPCbsSVLok5bistbC3NrM5L6aqqLElKz4bBtTl5jIRF9vv5BgD2sbw7Hxl2/evMnPz3d2dvb393d3d/e6kvDwcBQKdXR0BFDWAEwAaoPL5aKvhEQiMZnM6elpTU3NysrKnZ2dzMzM/Pz8iYkJGo02NTXl7GQXG+r3ortusLNU31b2UZml5UiQSpu1+asgwx5fn7F4tWgdeV8ls2IH7wafBzZfPLD67OFTHfUUbdtGR4sWO4tOu8+z5UHNj8x67G163Qwbbdz6/P4h+LpWhaHjsJd+i5V1v5tdn4tcvvqDQm2LTgfnYe+HjRZ2fe46EGObXsdfxd/8KlPOvMvWrMXavMXBvMXlfgboRuj9v9H/Z7MITb8UC2N3ZVXHB4ohen7d6XqVoSXo0fW3DMpb4cBQf6ibb29x7VBVa2RQWGpq6tzcHBQKHRwcTEpKKi8v39zcDA0NVVNT43K5TCYTBoMhEIjT01MoFKqgpKiiJnXptTV1jHQfeji57XPEbTXNsl/cUrohWxCb9Ky4oq+qpiYlva8C3FJcHOjjGRkVOjMzNTMz9erVGJPJlmZIiysG+oaTE9OCfAKAPRMTw4cFWekCNoPLlnKSMRiMFBzLG+tEGnUPDhMIBAgYHAlHnB6f7G7vGOjpP+/scnNxjYmKLioqKqsox+JxZCa150UvFLbd8aw7NSkzMSEpJSG2prqwpaW8uDQ7KSWhqKgSXNXC5hwwGKz9QxaDhSUQMcfHx4AOAF6dwOfzRSIRQDMhk8kwGIxAIFAoFCA3Cjgce3t7JBIJKHOi0Wj9/f2mpqYBAQGhoaGFhYVjY2MwGGx6ejol4WnOk6Tm/ML6vKSQKJuHmcYOo6GytaaafS63Omz1+j31a200wWY6ve6KLZb+L33ta82cIBY+nS4ObZZ23VY2fVaWfZa2Q/aP202tuyzNWkxcuuy/fHLbvMHcqdfBpPWxZZeZxwsnuSz530Zdt223tmm1du1xsn9mZdli4tJjZdygZ9pk4NZn4zboZNVhZd5iYfrMQafbU6XVxbzOJagz3KPSwyzX1r491KQ9XAHsVYAZ2P2OxnrDm34xlBMQNVHaNgruCPcNCo+MmJqZ3t7d6e7ujomJCQkJCQoKCgwMXF1dxWAwH6l7VCqVRqHuLK9hN2E7yxu7y1sbcyvQ+dUjthi5tstAEhpLquqKyrLjEqrz8lrKyp5DatJiouJiozKz0yanJ5aWF0dHxwkEEhqJKy2uKMwviQyPsTW3bqlv0NXUgm1tCtgMKgGLQaG3t7cBEqHMCnSDSKPiiQQylcJgMHa3d5BwBAqB7HneHRIUbGNlHRMTA66uGhwe2j8+gmOR43NTE3NTr5fWkpMyIJA6Tx83/3CPJ6khQbF+DR2NialZNfXtXO4+BotHYjeRWCiegIZCoUCtG+BebG9vw2AwPp8vjZ+vBHAvgKI3oEwBgUAwGAwcDgeDSVHL4/HW19cdHR1tbW39/f3Hx8cPDg5aW1tDg8OcLZzczO2f+Lq5+j42SDMxafcw6XQz6nZ9NOyl3Wrn1OFh+8xLrslGu8fVY9jbstrEvdXZu8PNHGLi0Glj2mZq02tn0W75uN7YtN7Y9ZlD8ICvfb1N8ICvU4ejTZuFWcMjty47nULte4nyHl3ulrU2Hp0edo3Wnj2ONk3GHt22zh2W9q3mrs/szOvNHlc/supyuQaxMn4V7dIX4VznHdQa6lHna1Lt5jIYq1PqXIN8LvpeIDpjvezsiLD3inMK9nzs6O/pHxIWOjM3iycSnj175uPjY2tr6+rqCnDxsVgsl8tFIBBAURMWjaFjSSIql4ajcihsDo3DZ/IpGLKAxhYzeZDyyuyUlPys9JSE2PTEuCeB/mE+npBacH5hTv9g38ra8uTkNBqN5bIFL4dH21qeeXn4hvoHR4WGjQwOibicXegaDistvwaYY1KfA0MkLK2tUmhUNFYKUh6PJ61hJJF3tratLa1MTEySk5Ozc3PqGuqJNOo2Ynd0ZmJmae7li7Ho0OjSgsKiwhwLaz1FtevGVqCM7OT4uCRIdQuTwcdg8TAMlEBHMFhUGAwGcAWAyk+A0giHwwGdQaPRAJ8LCFgAxhfAagaqNjAYzM7ODp1Oh0Agbm5u6enpfX194+PjTU1NmXn55U1tzf293UOt/knO4V1P7Ju9QvpC/dq93RvcojpD0ttikttjHWoDwl+mRjYHJ/fEhLeFejcF+nVFBAw8sX/ma9/l49Lj6zsU5v88IvB5TGBHpE9zkG+rn3O9u29XkG9vqGerr0eDt0d9QOjzWN/myID2SPd6n4BnAQHPfMP7g8J6g/26AgK6gvw6g3w6A/37wqPG08xKnKKbI1IaIp5WBxf0Jse0RYQ0Bkc0hLbPQ8THmAsJbZ9JwcLRE4vQwuqmhJT0hMSn4Oqq/sGBakhNXEJ8XFzc8+fPz87ONjY2gPQosIrgcDiRSCYRaVQaeweJ3cbgd3GEXRR2cw+GQmP5fGFZRXl+YV5xZbGru5Oy0oNHetpVpYXlFcWRcZE9fd1rG6uzs/PSKxCo/b1DBVkF5YXlmsrqXq5uWAQSvr2Fhu3si/lSjt8VN10arSwsLXJ4XDyRgEAhh4aGRkZGFucXRkdePe/sampotLS0DA0NBVdXjYy+wuCwVDZ9fHZ8fHJsbWU9KyWjv7Mz0NstItQ9LS3czc3cyupRZUlpe2MHlyWUvosBD8NRkFi8tDYcoEkCTCegNolMJn+MU4AqSCKRCKgQIAmDQqGANw0BAS2VSn358mVvby8ejwco1IODg2yRiPnmHePtxTJytWOyDbLUVLPe2LLW3LwIGdzubJ+sGZxu7xlv61ofynxe0jrV1D7T/Gy1u3AC0rjZX7bcUbLSWLJaD95qrlhrrl3vBs+2Vc21tm30NK61Q1aaqldbqpZb69afNW90d2wPlU+2Niz3Na72Nq4+b1x71rTRVr1YV7vcWLfcUrlQD1ltb9rsrFyor5yBDO4OgLsL6rqL+iYb20fAvSttXYtN7RPVS1vD786ZEi5RzGWenb+hH5/NIdFMvgiBQo6OjkK3NtlsNhaL7ezsnJmZQSAQTCYTDpcGklewIF6l0okIJBZDoO5gCXAyBcNgbmMxFDZ7C7ZHJBOaWurzCrL1DUFOrrbJybHpSTGu9lY9vZ3pmVKzMjU11d/fz2JxyETK8OCLhuqGsIAQKxOLrrb2lvqG2YnxrbXV/r6enufdANdOyj5fXV1Go5EnJ0fPnrXfuHGtoaFufn52enpybm5menrSyckhLu5JRUVZXR0Ei0UTyYThlwMzc5MvXwzkZ6UnRIcXZCQPPGsAF2Y0VBbkpca7WFs+b23lc3lSjggOjcGhsdgfb9JXe/ySRiYT8XgsiURYW1vhctkkEqGtrYXGZlH5IrbkeGETmlacmw4uzIQUZ1QVppXm5FQV5YAL88uKsksLMsuLM6vK8qpK86pKUivys+tK0yElKVWFqbXFyZD8p1U56bWFKVWF6VVFmTUlWbUl0ovUFKTVFKXVFGVBStPARTl1FWngkvSq0jRwSUpFQUZ1cWplQVJ5TmplQU5deWZNSUJxVkJxVmZNSXZtWW5dWT6kNK+6OB9clA8uyK0qyAHnJ+Ykza3MHJ/si0W8k2MJi8XCU6hwDJZEokCh0P7ePukbiyhUEoFIJVPIROkex583PJ6Iw5KuStnJaAIZh5fWtEuJZDgMjYhrb671crGLjw7ubK3pqK9orioszUmNCA4oLi7u6emZGBufm5kFyFxNDY01VZCn8QkOdvYvh1+sLq+svF6enZ6pqgT/4bPPpyYm6VTa+uqazN7ejlgs3NqCDg0N3LhxzczMZGsLOjc3Mzc309/fa21tWV9fOzs73dBQB4WuUyiksYmRuYXpkZcDIQHecZHBzdXlxWmJzyCVbVVlLVVl8SFBrfUQLoN+9bYFOhIlfY8UgYD780Yk4n9RQyLhSCScw2HB4XtMJp1EIvT2dpOplMOTN/snb+eWoem5xSXguhJwXVEFpLSqvrSqPqeoIr8UDK5rKa2qT8kqSM0uLK2qzauoyq+syimryK+sKqtrKIHU5VdWFYCr8yrAHw+yS8uBDxRVQ/LKq3PLqgoqIbllVfkVNfkVNbllVYXgupKaxrLa5kJwXWZRRU4puKy2ubyupaASklJQlF9VU97YVFxbl1lcml5YXFxZDWlqzS8pXdvaPjg8IlNo+/v7JycnfC5vcwNKIhCh6xt9Pb3wPRiFRCbg8CQC8c9h8UN98hU4cFgSHkeWvoMBJ/0kCYshYVFHIl5DdXmYr1t3U3VlXlpdWU4HpLShsiAs0O9JdMzi/MLs9Mz87BybyYKubzTWN0yOT7Q2t0RHRo2Pjo29Gl1dXpmfnbOzsf3qiy/nZmYPxPuw3T2ZlZUVQI3z+fzExMTf/OY35ubm3d3do1fi7Ozc3Nw8NzcHgUA2NjaYTPrwy4HZ+amZ6XFne6vEJxGDna3V+dm1RXmQwtyy7LQoP586cLmIy7nyJ0h0Bguwmv/1HqDIMpnMvb09IKKZnp5mc3gMjvDg9N3S+k5aTlFZdUMFpKmoAlICriuurK2ANJXXNBZVQArLa8qqGyprm8uq68rrm/IrqzKLS3PLKwuragCg5JRVZBSV5JRVFICrC6tqAKzkVYClrby6uLohr7w6r7y6oBJSCK4DwJGSW5xXXl0Irssqrswsqsgrr84pBafkFpfWN+ZWVmWUlOVWVpXXN4KbWsqqa3OLy5LSM+ZeL5+cnvMFooMDiUi0z+Fw4HA4mUyGQqF9fX1wOBx4xdLH+tgfmzRAc/wIONhUYmt9Vbi/V3tdZU1RTnVhZmVeWntdZUJMZGBg4MrKysLCwszMDIFAWFpaamhoWF5eLikpcXNz6+npmZuba2trs7Gx+fWvf52RkYFCoVgslnRvBYVCAfs6QLXjixcvTE1Nr1+/HhUV1dXV5eDgEB0tDWWLi4t3dnYwGMyrsZGtnY3RsRc52enero61ZYU1RbkVuRnPIOC6kqKsp/HPmprOj453d3fhCBSF+sOO84+N85edAwjZQHIGoNiPjY1xuHwynXN08WH29YZ/aHT4k8SYp2nhTxJDoxNCoxPikjNjnqYFRcRGJ6RmF5an5RQFRcSGxSeGxiXEZ2Rll5bnllfmllfmV1YVVtWAm1rK6xuLqiH5lVV5FeDc8sqcsors0opCcB2ktTOnVIqSvPLq/IqajMLynFJweV1LXnl1dgkY0CK5ZVVp+aUpucXRqelP0jPjs3Ke5uQlZGY/SU1PSM1IyshOSEmdnJs/lBxzuPz9/cPDZVBSywAAIABJREFUwyMej7e2tkalUre3twcGBgBy5McChZ+anatqVKJUbRAIUqqp1LRgSVjpntmz5vqk2KiizJT2OnBDZVFtSV5Vab6vj1dERMTU1NTs7OzU1BRQolJSUpKZmRkTE+Pl5dXb2xsWFnbt2jU7O7vu7m46nc5gMJBIpBQc6+vrNBoN8ASBF3bBYDBDQ0M9Pb38/Hx7e/vIyMiysrKenh4Wi0Wn00fHX41NjM7NT+Vkp2enJj0JDoCUFPa0NOYnJ4IL8oqzMuqrq3gcLolEIlNoCKQ03fnfIiiUdHcQj8dvbW2JRCI0Gv38+XMWm/vN95f7J287+17YOHk4efg5uPnYu3q7+QS5eAXYuXjZuXi5+wZ7B4a7+wY7efg5uvv6RUSHxj3NKCotrqnLKilPLyzJLq3ILC7rG51o7OopANek5hel5hdllZTnlFXmlFUWVze0dA8CgMgpBQMgyCyq6Hs1VdnQlpJbnJxTBOiSnFJwWn5pRFJKaEJicFxCcFxCUExcYHRsVHzi07TMkMiY2aWVby4veeJ9OoPF4wuFon3o5jaNRtvZ2fkTcAB89B/FB/BuPjyRcAWPK5ONxxLw2COxoLmuJj8rHVxSUJidXpqfVVdelBIfU1MNzsjIGBoampubm5yc3N7eJhKJ3d3dNTU1T548MTIyKisr09PTMzY2JpPJAoGARqMB5XcYDEbKBMPhcFAoFKhw393dFYlEo6OjlpaWAQEBxsbGycnJLS0tL168kBbaUshDoy9eTY1NTo36+XpCKstiI0ItjY2cLM3jw0NT4uKykpObauuIeAIGhyWRqSg8QYr0H5MfHfnPnNzb26PT6QQCYXt7m8fjIRCIoaEhgVCMJzP6X05EJ6RaObj5hUQ5uvvau3p7B4Z7+od6+oe6+wa7eAU4e/r/H+re+7mNI2sb5b/z/XCr3ne/TbZlBWYCRI6TA2YGOeecAQJgpkQq55woSlTOOedkZcuSbMm2chYl4tagZZprkVvre+1db9VTXYPGoPv06afPOR1mgDMmqzsYSuSyHd3pts7i1L5sR7cvkU4U27pnz2ufPqutb2amvSucbQHMSLV2xFpKwXQu39m7YGV/IJmPt7THW9oBORIF3nJMX7Bs6pyFsXybJ5qKZEupUmcs39Y2Y1Ywmzd4fHq31+oP2QJhhy/o9Id0BnPntOkXrlz94cnT5y9e3fv2/jd37p0+wz9WeOTIkRG3Ap4mH++Z8p/f2viRHJVgrkKOM6dPzpzW7bJaMvGIQUcaGUohEjAEmkgkIpHI4ODgxo0bBwYGwCsu+YdLZs9mGEapVJIkKRKJ1q1bd+/evZMnT544cQJsXfGzlb37Dly5ev3Gza/5qcX5ixcvfXX4yLGvrlwzmiwESUtlilA42tbeOWfu/FWr1/YPrFu5bvXW3dtVKoVIJJRKRPNnzYz5/ZvXrduxceO6FasGVq85cujo9es3T546c+YsTxA+nB4LFy7yvPnXcanyjpjLX109eerM9Ru3zl+4tHpN//oNmz2BqBqlmyQqoUxDchYFRChhUoszGkxHchZKb0Uovc5or0SjvaWuvnzX1Gi+GGspBVJZfzLTt2Dxms3b5q1Y7QhF3dFEIJWNF1oz7V2p1o5wtsUbT7VOm7Vyw1Z/IhfLt0VzralSZyhdSBQ6XOFE77wlKzds7Z23JJprDaULwH7Eix3J1q50R1e0ULL6Q5jeRJlt9mAkGE9RelMkmekf3Hz/4aMnL1998939nfv2X7l6/dDho0uXrTh56sxXV65duHj50uUr5ytv0xpDb5W3ep6/cvH8lYsXrl66fIWfvvCu5dKFq1e/unD+7JpVqwc3DAxuGFixfKnXYZ/RNx3H8f/9058xnNyzd/+27TuXLV/ZM7V30eKlc+ctMJmtDKsXiaUOp/vet/f3HzgElHzp8pVr128ePHSk6uy5C5cuX7l+49a16zcvXLx8/8EP167fvHL1+vQZs2bOmjN/waK1/QNr1q47euzEwUNHBtYPLl6xfNueHXPnz7lx49qli+dXrVi5f9fue1/f/uHutz9++/23d7+7c+fe1avXb966fevud/y7p2/cGhPXrt/8Vbj19Tdnz10AP+Hj3MtXeqb2ihVqkUwtUSE4Y1IhlAbT8Y5DbwUGQ6pGccaUzLf1zl7YMW1WMt8WTRciuYInlgxl8pFcIV5onbFoad+CxVZ/CDiRZKk9XmgF9iOSK8RaSt2z5m/YsRdYjki2lCh0+BO5aK7VG0vHW9oL3dML3dMThY5AMh9I5qO51nCuFM6V0h1dbTNmFaf2BdM5szdgcHmtbp/F5XX5Q5zZ1jF12omz5358+uzoqdPXrt88fOTY8hWrTp0+e/XaDdA9Y9ACDLDLl/jX8/0jOfhveHJcvXDhAjgexT+Ge/v2ti3bV6xYBTi3cNGSrdt2TJ8xa93AhrPnLqztH1i9pn9t/0DP1N6Zs+ZM651+6vTZr2/fAbWfO3/xxs2vz5w9X7W2f0P/usF1AxsH1m8ajVA4bjLbg6HYosXLt27btXXbrs1bdmzavHXB0iVbdu7Ysm3rmv61/LNTW3cMrt/Ik3XNwLq1Gwb6BwfWbVw/sGn9hs3rNm5Zt3HLhsF/wPoNmwFGaly/YTO4Z3Dj1k+xcdM2gK3bdi1fsWbb9t0bBrckklmc0M2cNU8FY2qYgEkOpQ0gzgD8kKgQ2mDLlrpmL1ze1TcnkWuNZ0vxbCmUyAVTLWCgz1i4fOaiFe5I0hNNpUqdgWQ+nClGsiWAWL4tlC54Y+kZC5ev377HF8+GM0VfPBvJlsKZYizf5o2lW7r6zJ5Qtr1n95FTLV19gED+VD5WaAd0SRQ6+uYv7Zw5xxYII6zBHU1EUlmLy6u3OsLJzJxFS7fs2nvhytVd+w+sWb/h0PETZy9dPnT8xKHjJ46dPvMLHD11uoKTR0+dPHr6+LEzJ3icPnX8zOnjZ06fOnP6xMmPOHnqzGl+/+PcmdMXTp85x+9jXLy0bfeeLTt3LVq+4szFS5ev3zh57vxXN25u37O3q7cvnEhOnTFzz8FDZy9dPnrq9OkLF0+cPXf4xMl9h49U/e3vEwD+/tmXf//sy88+nwhQW9cEciZPqZs8pe7LidWffT7xf//011ypdcXaNRKZ9PMvvpw0acqXE3g0NYpqpzTWVDfU1jTV1jXV1QvqG4Q1jcLapuYmgXgEAqFkBE0CMbgWNkuFzdJmkUwklv8CYoliBFKZSiSWa7SoVKYSNksRlJw+Y06DUAoRrBImASQqRKbBLK5AW8+MZWs2dEybFU7mwQpHIJaJpFpyrd3uSNIZiu8/cXbHwePBVEsoXYhkS/5ELpDMh9KFcKYI0ki2FEy1uCPJvvlLt+474o4kEwU+3ozl28Cv/ImcP5HLtHVbvOFC9/Srdx4kCh1WXyRe7PDEM4BMwJa0T581c/Gy9umzKLONYA3hZMYTipKckbPY/dFEKJ6IptJdvX3eUDgYi0eSqVg6E02lRyOWzoxCKpZJxDPpeCadyGYS2Uwyl03msvEMj3Qml8jmMtlCKl/M5orpllK6pZDI5oKx+Jadu+YsXJQpFFP5lnRLIVssZYuleCYbiMZi6Uyps6u1qzuVb8m3tgG0tLVXfTml/ssp9RMm1wF8OaV+YnXDpJrGL6fUT6pprK4XTphc9/cJU6rrhfUCyReTa0LxxMFjRydMqa5pbBJLFMJm2ZTqhiaBpKFe1NAoamgQNzaJmwSSeoGkQSgFaGyWATSJ5E0iuUCsEIgVQolSKFE2S1XNUpVIxnsHsVwjlmuUWkypxVQQPgI1TABoUUqhQRuEUoUGNdncvTPnSRRaiGDVKC1SQBIV4vBFZsxbsmDZmq6+Oa5ALJTIpVra04WOWKYYiGUCsUwokUsUOi7evLt5zyFHMB5MtWTaun3xbDDV4k/kQulCKF0IplpGut8VTkybu3jX4ZN6hw/Ym0i2FEjmI9lSstjhCMZd4USuY5ojGO+aOe/SrXulqTMDyRZ/go9ek8UOXzzrCieArepbsHj+yjWJYhtpstoCoXA274kl3NG40e5yBcLzl67QWx1Wt88TirqDEVcg7A5G3EF+GuwJRb3hGIAvGq0g7I/F/LFYIB4PJhLBRCKUTMazLfFsSyLbksgVkrlCMl9M5YvJfDGazrX19IYS6fVbtnf1zQzGU2DdJZLKZkvtpa6ppa6p+bbObKk9XWhN5ou51o58W2epa2r39FlVU+oEk2ubJlY3AJZMqmmcXNs0pU7w+cSaybVNDUJpdb1wYnVDvUDS2Cz7fFJ1Kt9y5OSJCVOqJ9c11tYJ6utFNTWChgZxs0gtEinFYpVEom6W8p0NMNL9oO8lCq1EoZUqIZkKlqlguRoBUGhQAHADuEeqhABkKlgF4RqEBLxBCEYF4U5vSK5GhDKNTIM5/dEZ85YsXL622NkbSuRimWIy3xbLFIPxrC+SCsQysUwxkWuNZYqHz1zasGOvzR+1eMPxlnarLwLmosByhNIFED2E0gV/IucKJ+YtX3v4zCXG6gJexp/I+eLZaK4VsATYj3RrF212zFy04sKNO7F8uyucckeS0VxrotCRLHbEW9p98awnlsx2dK/YsGnBqrVWfxDTGy2+gNHt9YSiVrev1DXV5vGHk5lQIu2LxHmLkkgDhJOZSCobSWWj6dxHZDLRdC6WzcZzuUQ+n8jnky0t4J5f3pnOJfPFWCbvi8R3Hzwyd/EyTygaSWVb2ruKnT251o50oTVTbAOEKHb2tPX0pgut6UJrS3tXx7TpVX/++6T/+7eJ//uXL/7nz5//z58//9+/fPGnv074v3+b+NmXNX/9fPLnE2snTK7/+4Tqv0+o/stnk//P//OnZK6wfM1aoVRR3SD4YlLtpJqmmgbJxGrBl5OFX05pqqBhYnXjxOrGSTU8JtcKJtcKptQJq+ubq+ubaxpEtY2S0ahrko6GSKYZgViuHUG9QCoQKwVipUKDKbXE5FqBQoNJlbA3nJw+d/HytYPd0+cCJxKMZ53+qD+adgfjoUQumW/zhpOeUHzxynVff/vj2s27MM7qjWXbeuf44jl/Iu+L50LpYiDZEkoXwQW4DiRb3JH0wlXr9h0/Y/GGY/m2QDLvT+S8sTSgDnBAvnjWn8ilW7swzrJi/ZaTl25MnbPYG8tGsvwUxuINW30R/v501h1PWgKhwrS+/u07py9eag9H7OGIMxw1e/0Gl8fqD3piCWc46gxH7cGwKxIDcEfjnljCE0t440lvPPnTR/7aG0/6EilfIuVPpmMtxU8RL5QSxdZQJhcvlPq3bu+cOTvd1hHO5rMdXYliazibD2VyiWJruq0jWWpLltrSbR35rp5sR1e+q6d9+syqZasGlq5ct2RF/+LlH7FkRf/SleuWrlw3e/7SOQuWgY/LV69fsWbD4uVr5i9ZvnPf/jkLlyxatnrRsrVLV65fvmrTjNnLlq4Y/IiV65euXL9s1cCyVesqGFi2amD56vUAK9Zs+OdYsqIfAMgwkq4Z2Lx+045V/RtXrh1c1b9x8fL+1es2LVnRv3H73qkz50dSLZFUSzRd8EfT4WS+0DGttXs6sBzJfFu21JUudOTberqnzzW6gsFUId3a44vnvLFsqtQdzpScoWQg2RJMFYKpgj+RB+QIpgreWDbb3jNr8UqLNwysBTAtwPUEknl7IJZu7fJEU754ttA9nbG6Zi9ZHcu3gwKBEUoUOvKdvf501pfKJFrbIy3FYDY/e/nKzfsPLB/cuG7bju0HD/dv3b5h526Qbt1/cGD7zg07dwMM7tozuGvPxt17AQZ37R2NkfyB7TvHw+CuPWu3bNu8d//MxUs3792/ac8+UOaWfQd2HDqy8/DRrfsPbty9d/Pe/TsOHdm0Zx+ofduBQ1VtXX1tXX2tnb0ApY5pANNmzGvt7C11TGvr6iu2T23t7G3vnp4vdc6Yu6B/cGOm0NrW1dvaPb29Z1bvrCXdfQvbuue0dc+uYGZ798z27unt3X3t3XzJoIp/ko7UPvrmSgnTR1IgSUtrNxCmu3d278z5rZ29VncwGM9G04VALBOMZxO51kiqxeGLgCWvWKboDSed/igISIN8eFGIt3SYPeFwpuSL54yu4AhR/Im8P5H3xrLAlgBy2AMxXzxr9UX8lZnOCC3ckWQkW4rmWlmbu6WrzxVOeGPpWL7NHogHki2JQmcoXXRH0qF00ZfMMXaPO5aO5Fvd8aTZH/QkUr5UJpwvlPpmxAulVGt7aVpfOJuP5gvgY6LYGi+UABLF1tFIlvipEI8iv7ofL7R+RKk1/jOK8dJHtHRPDWVyvkRq/Y5dU+fOD2VywXS2OLU3mM7GC6VkqS2Sa/En0/5kOpJrAZYmkmuJtRRbuqdW+cPJQCQF4A8nfaGEL5TwBuOeAI9AJOULJVy+CLjN6vTNnLdw47adNrcvFEv7IimbO+z0JdyBlDeU+Qkpb6iCcNIbTvp/Aij5n6TeYNwbjPO1V8QAqS+S4qWqpK5AzBuM89FlJOWu3OwKxMLJfCiRCyVy4WQ+EMt4QvFALBPPlpL5Nn807QnFw8k8CEi94WSQjxBTgWRLvKXDEUwEU4Vkscvqi4YzJXck7Y1lvbEsuAimCoFkizeWDaULzlA8lC744llvLO2JpryxtDuStAdi0VwrYIwjGPcncsD1AE54Y1l/Iu+OpD3RTDBTCKRbvImsN5ENZvOBTM6bTPtSGU8iZeEj0xad1Z5u6zS6veFsiyeWsAXC/mTaG09VvEnyH9OkL54F4IWJJT2xpDuacEcT/EWcT12xuDsaB6k7GrcHw8F01h4MD+7a0zNnHnBejlDEFYkBr+SJJfzJdDibD6SyjlDEl0i5IrFALJkotlYB5fJDKp4Fg2/kGigdZP6k+lhX74yd+w46fcFIIhvLtPgiqWA86wnFffHcWMj6o2kAUA4oc6Q7Q4lcIJbxVmgEBjf/MZb+11NvLP27Akxz/vX0/4swcZ5w3k9SX4LnoisS90RTwTQ/meK5WOmpT1O+g1LZn9Js5TobTmaD8VSypcUTim7ZtbfUNdXkcGdL7ZWANxNK/AK5UCIDguJYOpcutFZ5QnFPKO4Oxl2B2AjAx9H5nhB/g9Xt7505b3DrDoc3EIgmfBEe4STPEkcwPgJ7KDEC0PEjKajOE4o7/VFPKO6PpgEpfZEUuMcdSf6h4IukfhV+Q+GBhXCG4vZAzOaPmtxBzu51+CJjwuYJjYWA3RtwBgIWl3fLrr29s+fZvQFvOGZ1++ze4CiE7V6AoNnuMdldNrfPH4lX8SvKlWgunMyPRiiRA/nAYkfThVAi54skFi5d1T+4ORhLxjN5dzAK+BHPflwe+OiS04XATwDlj9inQCwDDAngPigcfOuLpHjS/MEwwuZ/8eK3kt/sCbnCCeC2ornWTFt3sWdGa+XgEjjK9Iu0e/rcsTC7b878runTUy2l7XsPLFm1tnv6rK6+mdPnLpgxb9EoLJkxD2DRvEXL5yxcMm/xsiUr11Td++HpvR+e8v+U9uAxwN3vn4CP4CuQee+Hp3cePL559/7qdRsPHju599DRB4+e3n/07OHz1zfv3r9178Ht7x+P4Osfno7gm/uPvrn/6PZ3D7/+9sdb9364eff7G3ceXP/m/ncPn58499XileuS+Ta7N2x1B73hZDiZ/62U+1uV8y9yYuS236pesIBm9oSMrkA4U1y0euDU5RsPnr15wP8R6Rh4+PztWHh9/9HTd+Xy2ctXt+3Zv2pg8Jv7P7z+UP7x2ctnb96PwvCzNx/x6l35xdv3L96+f/OhXJVr7c6WurKlrkyxYzTShQ6Qny7w+bnW7nShI54tLF3Zv3zNumSuUOrsiaRy2VJHqqW1fer0ZJFf8AFIlLpG8IvC04WOEcSzJRDK+KNpMKeweUIjvukPcuEO8j73X8dvJbbJHXSG+GjDGYpbfRF7IOYKJ9yR5OigbfT1p1FIJScdy+Q94bDTH+rfuGXWgsXBeMrkcGeKbf5ochQ+xoX+aNoXSXjDcX80Gcu0VDl8Ebs3/Km7srqDwA9Z3UG+zyqTQ6OdX7RetHyVwxsIxpJWt9/q9nMWh9HuNntCIzB5wyP4yZnxLm20swTHtMxOv8nhs7qDTn+Un9pE07+Vcn+rcv51WoA7f6t6bf6oM8SHccB4WH0RZ4hfrf+0p0DOaN2Oug5Z3T53KOQKhNds2NTZO8MVCJudHqc/NCrg+NjRoKdcgYjTH/aEYuFktgoEoU5/dKREpz8KPoKvHL6I0x91BWIOX8Ts9C5atnrrrr0Wp8fhDdi9Qac/7IskArGUzR8dgTUQG8FIsb+4sHvD7iA/7QQTFncwbveGLa7ASCF/kAugjX89/a3ENjj9Nn8UWAt3JOkKJ6y+iMHpH4+s40gYdgXCNq/X7PTsPXxs7uJlZqfH7g1U9m6i7uAIfjaNTn/Y4Qu5ApFALPUzOUb48c/J0Tdr/o69BwxWh4OPe+N2b9DhCxnt7tFKGWGGNRAbLfQIP4CtArQDNgkYKlcgZvGG/1AYbfn+levfSnhHkJ+kmD0hvcNnrIwZRzDOK3nsWQlv2sdCyB2MOAMB1mzbvHNPZ+8Mg80ZTmZsHr/THx4F3hwAuAIRhy/kDkZDiQxPjhHPAiz/iAoAXYA0IGY02FxzFy7buG2n3mJ3+oLANFndfocvZA/EHEHeO5rcQaMnZPFHLf6oqWIe7N6wKxALxDKuQIyzuIx2ry+SGqslfPPGU67VF/ldAXzip7UDlwpUYfeGjXavxRUwO/3jyT+ekJ+WDHLGu3+8/JHe+cWF0e4Fftns9BvtXn6RMMz7fd6D+HyMybp2cPPUmXPs3oDB5vSEouO5FZM7aPGGja6AN5aucvqjoONBbAHGtNUd5C28J2R1B81Ov9npt7qDJoePNdvnLlw2sGmr3mK3e/w2D+9ZrG7+wuQOAo47gnFnJGX2RQzuoKkye9Zb3ZTeypqdFlfA4YvYPCGLKzAeTO7gmDC6Ar83QL0/R04VSazuYMWfflSC2ekHTnY8+ccTcsxG8QPpV7bL6g6OiUAsY3EF9FY3EBiI5w5GLS6vw+/nLPaN23fNXrjE6vaZHG6HL2jzBEbh5zUSQA6D08+TAzADjAaLKwBoYXEFTA4fqMDk8JkcPsBHxmTjw9F1G/QWu8Xpsbh8Vrff7PSanV6dxWlw+q2+iNkTYh0+nc3DOnzGSiQLpnmAEyDlLC7AuU/T8ZRlcPr/DRhdO6iOs7gcvghrdpqdfhAVjQyYT4U3jy/k6JJHX//aRo1HSpjkgKgg0geDWW91GmxOZyCgM1o2bt81Z9FS1mwzOz2VM4s+i2sEP49VoysAfJknmqryhpOjl0dBvANCUdCpI9dOf9Tq9i9fPbB6YNDpCzq8Aac/DIIa3nuF4t4YP9fg7F6DO+iOZeyhBGl2esNJPpJwBTiLC3DC7g07/dHxGvlbjbDRHfCvXINOGrkTfNQ7fNlSV/vUmcCsAo2bHD7gXMZswkgJv7j4rdo1ptmwuoOdvbP90bTB5nH4IvykrzK79IRiNo8/EI/rrY71W7bPWbSUMVl/Ok8UcQVG8PPiOJglWX2RYKqlKp4txTLFkS3vaLowsmYayxTBV9F0IZ4tVXY+U+sGt67dsCmeyQdjyVAiE0nl4tlCJMWfuXUEeX60dPWl2nqckVSi1LVo7eDR0xcXLl8bSuSA87Z5Qka7l7O4xtSs5Vfa2F90wG/40eD06x0+vcO3btOOwW17fJEU4LfB5rF5Qv+E3L+hDGMWNZ7e9hw6sW7Tjs7e2WA0xrOlVEt7MJ72RxOJfN4Tiq7fsn3RitUOXzCebakcIMpFUiPgDzwA8EcXMkVvIpdq66kC56NGyBHLFEcWvAFRwsl8JNUCWOKPJhcsWTlv8bJkrhCKp8LJbCSVS+SKkRR/BCbb3hPOFGmzwxPPrty4ff+pC5v3HWlpn2p1B2GSIzkL8FAmh8/mCY1c/+KCs3vHBOiq3y8d3ROAGUCMRSv6BzbvBH7WYPMADwuWZ34hOfg4noRjNoqze8e7f7x8o907HpasGjh7+cbug8c7ps3it0IjqWg6H4ynohn+LNnS1f2zFy4JxPgDhYFYMprOjwJvEfgdEv4g3ChygNNTozdOwfYHCH0DsQy/XV7ZHqucrYpmC+25UnskmQlE+eWNQCwVSmS84bg7ktRZnJFsaeehE1fv/bBp7+F4sZOxeym9lTbYwICzuAKs2Qn8N3hi8dOUtbn/IwCdMWIwOLuXtbkZq6tvzqI1G7YyJgfoexD06Yz2TyUHOb+38OPV6wrEtDhjtHvXbNh6+cad7XsPt7RPtbh84WTGG+GfmgHnAsEBRF8kDvrup5Q/YAt2wvkTC4mcM5KKtrTzW/bB+MeNdbCr/ou9sZEt+2A8ywco/kggmgjF0qFYOpzMAnK4g9FSV9+2/Udv3Hmw89CJdGsPaXSQRofZEwZRG3AleqsbWEWDzTMe/U0VY/5pypdQGTS/SMcbkf9/8lmbl7G6dBY3bXZs3X3w6OmLvKmz+zmz22T3G218hD6G/Daf0cbn/0JCkPNpi0DOr5VzTHNlcvhog80TilvdQUxnjKYLO/cfPX/l1q4DR3Kldm8o7I/EvaGoNxT1ReKRyqHUn2jBD++RAwmVAysZXzLviqZjhY4qcIjSE82A8ynBVMEXz7kjaWco6Qwl3ZE0OGgJTsF4Qvx5nFAsHUu1BKNpuzvoDcZ7+uYMbtl957tHuw8ez7R0gOdHCNYMnkk02/0wzhksHpsrRHM2nd7OGp0oacBpE83ZIIwlGYvJ5uNMLr3ZrTe7ucoYtTh8apRmDHad0U7ojDDJmWwevdWNkpzFFSAZE+/4vWEVQqkQijbYEEpPsOYRxbFmp97qZs1OiGBJzgKEMTv9nMVFGu06i5M2O/QOH8qaWZtbSxkokxNhzBhnNbqCOoubsfowzmpyRzDOWuycOnfxcoqz6S0+oy2g712CAAAgAElEQVRodoQJxsaaXLTBRunNWpzWGa2U3soYnf5IjuIcBquXNtg0CMWanVRFJNAK1uiweUKMwa7BdIzBLlWjerOTD9LtXoQzM3YPaXbobG41xZFmh5ridDa3kmAIk511eCmLkzDZjZ6gzuKESU6ntyIESzImjNKjJEdzFqvTrzc7GYMdo/QglamQaDK/58DR2998u2Pn7mKpzR8IxRO8vff6wrFUPhBJBiL8fgVvCyIZX5g/6+RP5F3hlCeaCaWLiUJnFThK6YlmXOGUM5R0hVMA4IhbOFPyRDPOUNITzXiiGUcwHk8XXL4IZ3K4fJFZ85YcOnbmyo07V27ciSbzNGcJxTJzFy7vm7Vg2ox5C5eunj1/qdnu94VSRqtXb3Ybrd5AJDNz7tJZ85bNWbCiu3fuwMadqVw7ShpsrhBOm4xWN8mYKNaMUfrpsxe2dvZ29Mzo6Zsze/7SRKaIUfpAJEUyJovDh5KcyxfZvH3vxu17Vw1s3nXgmCcUpw02gjUb7V7G5IAINl3o6Oyd3dk7u9AxrbN3NsjXWZx6hw/jLLDOGMnyD7S1983tmD6vZ/aiisHwEQYnbfbgegdj9dFm14lzl85evhaM5Yy2AMHYKc5Jsg6bOxrLFFvau7Kl9vapfdF0HsI5qytK610WRyDT0tE1bVYs1dLePd1s98I44/CEDBaXUku0dvauXDvY3Tt7YOP2jp4ZZqefrnDC7AlhBittdsxftS6cKea7+6K51qnzFusdPhXJ8j7O4W2Saw1Of6mrr3fm/AVLVuVLXQuXru6btcDq9GtR2mz3cibHjDmLlq0amDZj3uLl/XMWLEtmiy351jNnzt279926desTyaw/EPEHom4Pf1YrEOGP6vFhQyTjDfH97olmgF3wRDPhTKnKE+XP0bvCCbBeaw/EnCE+gBhZDgc5I4v8Vqc/EEnOWbD0zIUr3/3w5PDxM7lihwrCzXbPnAVLHz9/M1Quv3pXHiqXv/vhSe/MeYzBTrFmmrMgBLtw6eqhMv/V6yE+ffm2vP/wqUSmyBjserOTNTpYo8Ptj6ph4uDRU6+Hyu+Gy4+fv3nzvnz73vcOT9BodeG03heKoyRrdfrOXrz65n351fvy09dDX938xh2MEqwR0+kNNhdncUCE7tCJM+/KZYBvf3ziCkRwxkBb7CaPn7bYDS7v8YtfPR0aflMuv3hfPnL2Mmtz43obrrfRZhdlcmKclbN7A7FkV99MJUwyRrfFGbE4I7TeRevtj1++fVcuvxkuv3j34cCxUwRj0RlcFOcIRFIXvroBmvny7fDJs5dMNjdrtFkcXpozz5q3+PVQ+dmroaFy+enLd7v2HVZAGOdwMyYbabKGk9l123byxVbEfsNvtV+zBcKs2c453IFYimCNcxcue/Ts9bNXQ++Gyw+fvhoql2/c/rbY3qPQoDaXP5bKHzx6aqhcfvuB1/BQuXzs6KlIJNbZ2X3r1u3b39zdvmNXb98ss8VhcXjD8Uws0+IO8gvn4CiP0x8FJyAdwXggma9yR5KAFmDTzxVOuMIJTzTliabANnEgmXcE47TZYXD6Y5mW+YtXHDt1/rsfnhw/fSFf6sQozu4OTJsx98mLt0NlvtnvhnmZNm7dRTJGCKM5k4PmLA5P6MSZS0Pl8os3/LePn799/PztngPHePcBk0ar22z3Wp1+1mgz2dz7Dh1/8PDZCMmu3bprcXgp1kRzZtZoozkzY7CeuXAFNB70faGjB2cMnMXBmu06o5VgjYWOnu+fvHhXLj968eaHpy8379wLboAZPWG0qEmd0e27/+zlm0pPvPxQPnv1FkQbCIOdMNhps4u1ebWUgbN7Hzx+dufBj65AjGStKGUmGJvO4NJbPBeu3nz5/v3zd+/elcs37nynM9opzmF1ReRqdO36zaBvXr0rv3lfnjZjrkKDUqwJwmjGYF2/aXtlYAwPlctPXrxdO7hFi9N6qxOlOQWE6a3OwW27Hr1482b4I61v3XtgcnhQmiM5E84YYFwXiCRfvPkwVOYLB9q+/+PTVf2DJGNUQThGcT19s0F3PHn5Zrhcfvny9aZNWzKZ3Nx5C86cPX/h4pU9ew8msi1Wp89gc/kiiVAiU9kji8SzJWeI38FxhRPhTLEqEEs5/WG7N+gJxQKxlC+SAJu2wXjaE4rZvUGz02v3BjPF9pXrBo+dufDg4bOT5y52982EcEoFYx1T+y5fv8UL+oHHULl87es7qXwRIXVGm9PscKMk6w3Grn99DxiMN+/Lz1+/HyqXN23brUUpmjMbrS4NQuK0Xg0TnMl+4sxF0OsPn718VymN1psUWoRkDVaXlzPb1Ai+99BRfnh9KL989+HNcHnXgcNyLQKTOqPdZbA5MR2nxaktlZdhjFiO9ql9WpwiOaPZ6dFbHSRnbOvpBd++el9+8W547+HjShg32DyU3gp8E0LpbZ4AT+UXL12+MGOwM3qXjnPqOCdCsF/d+Jqn7xDflqev3vrDCQ2iq4RTrMsfevDo6fePeX6/fl/++t59i9Pj9AVpvQng2Olz4CvQ0tauqRBOeYIRijPqDGajzblhy/bnb4aevuLHG8+kdx9ypXaE1Jkdbr3FjpA6vcX+3Y+PKwLwJBsql5+/GRrYtNXq8prsLginDFbHibMX+Btev339lqfIoyePl69Ylc7klq1ec+ObO7e//W7rrr3ZYpux8gaRcDITjKfNTq/DF3L4Qv5oMpkvVQXjaac/bPME3MGoNxx3+EJgr0RntNo8AV8kkS11rNmw+fKN2zfv3j9x7lLntOmc2aaCsVyp/fxX14Bkj56/ev6GN5Vbd+01WB203sSZbUoIVWiRNQObgJd5PVT+/tFzcP/chctUEE5zZoo1YRTn8AR1eksgkvxoMIaGXw3xbb519zuKM0I45fQFdQYza7JCOLWyfz3QFyjq9nffmxxunNHrjBZKbwKpKxD+/snzd+Xy24p9vv/oqcHmpPQms9NDsAY1SmgwctXA4Nsy7xReDvFjdM2GzWqUtLgC4E0vjMmB6YzecHyoXH70/IXR5iR0RsbgYAwOg8WDEOzxM+f5of/yBRBj9vwlMM5V4iqXFiP3HzkO8l+8ff9qaHjW/EUSpcZkdzFGiwrGnL7gzTvf8nb0Lc+tZ6/fdXROxWiW05sxmsVwmmD0+/Yf5m94+fbZ63fDlb5v7+iBCdrpC8IETbIGxmg5feEyoMWz1+9Adddv3w3FUxBOkayB4ozdfdPffygPl8svXr18/PTJcLl89dqNtu6eaCq9dNXqS9euf//42a79h5L5otHu4l8CEOC3am2egCcUi2cLVb5I3OkPOXxBfm/XH7K4vHZvIBBL+qOJnhmzN27fdebSlRt3vj1+9sL0uQs4i71ZpgzGknsOHnn9nifsq6Hhl+94E3fr7nfFjm6FFqE4I2uyKrRIMJY8dPzUi7fv+fH94aMinr8Z6u6bKVNDeoud4oxgA08FY/FM/t73D4ExAO08feEyrTcxRguu4wAzlBC6YOmKV0PDYEg9ffX27XB5+twFQpkS2AyIoEnOCJaKQUDwZpgPSnYdOKzBSII1sGab3mYjOE5vs31169arDx94vOfJMWvBYg1GAvOOMwZKb8Z0en808Wro3eMXzy1OD2fiaUFzNtboVGqxg8f47n81xPfKu3J5847dcjVK6Iys0YaQunAi/eLt+7cVD1uh1ytab7K6vASjt3v8Khhr7+kFrXjx8u1wufx+qOz1hWiK8/pCRoOV5Uw4Rm/avL08XP4wzH87XC6/ezs8Z+5CoVQRiCZovUmLkZzZtmn7LjCQHj57+eZD+e1w+cGjp/MWL0NIHUoxFKc3GM07d+8aLlco8vYjhy5cudrV21do71iyctW1r2/fffD9+s1b0i0FXzgSSqTt3oDN4w8l+F1ZnhngyV2bx292enyReL6tc8+ho6cuXL517/6FqzdmL1xCckaZBqb0pp37Dj56zsdBz98MAcL++PTFtt379Ba7WKEGhlEoVWQKrV/fuw/GDRjobz6UHz572d7TK5KrOLMNpRjObGNNVpFc1dU7AzAMFDtULp84e8Foc2I0S7IGzmyjOKNCi/TNnvfg0dORETlULu89dFSuRRiTFdNxeqsDoRjaYNZbHQ8eP3tXLj95xceML4eGQcejNIszeoxhUJ3O6vE8f/fuxdAQ8CyvP5Tbp/YpYQyEtHqrk+RMMMl4QtHK+H5jdrgJnQGjjFqUYY0OGNdt3MaHDm+G370t84WcOn9Jg1B6sxOn9UDgk+d4//hqaBiYh03bd6lgTIMSnNmG6zg1gi9YumKoQgv+98Plu3fuOx1eSIuZjDaa4nS0Hsfo9QObysPlVy/fPX/2ujzMd/CWrTtlakiDEp5gRAmhJGvYtnvf8zd8GcBVgYuN23YSjB6lGB3DUTp6xszZD77/seIBX7+oUOTtcPngsePFjs50S2Hrrt0/PHl6887dDVu2ZottrkDYxE8MElXuQNgbijq8AYPV4Q1FZ85buOfgkQtXrt998OPRU2dnL1hsdrjFCjWtNy1b3X//4ZPX73kX+PzN0JsP/Ii5fvtud99MoVTBmW0ka5AoNSoYmz5n/sNnL8GIGSqXf3jCe5O7D34MxpJihZo1WXEdZ7Q5JUoNSjGLV6z+8elH4wwocvrCZb3FDuEUxRk1KKG32BuaJeFEGjgvUPVQufzj0xcWpwfTcSjNojTLmm0IxTTLVeu3bH/1vvz45RvgU568emu0uyCChkkdTx2LVSCRdk7rff6mEkG/5qdXQ+VyIJrAaBYlWcZgRUlWp7eoYcIXjn0oD797P+TxBiGYICmTjrFiGIOgVP+69cPl8pNnjz+U3w+9H77/4KHTGVCpUJozazGSZA1t3dMAOUDrHj1/5Q6E1QhO601gCElV2j0Hj5SHy69f8Zbh2dNXN298YzLaRM0yk9FmMtrUKphjTRsHt354z7PnxXM+dBh6X95z8AhjtDTLlCC8QEjd/CXLAQVBAARadODoCW8oKtfAJMvJ1JDJ7jhw9NibD8Ovht6/K5cfPuM75fX7D+s3b4nFk8VS2/4Dhx4+e37p2s2d+w529c6IZ/JVIERw+UNzFy09fub8rbvfXfv6zoUr1xctX2X3+JvEMsZoWbVuw/2HT0CVI+mLt+83bN5BsgaBWMGarCoI12JkIlM4dPzUy7cfo6QRt3rx6g2ryyuSqxijBXS8QCL3hqJbd+0dCbuAeTx84rTd41doUFzHme0encGsholUvnj/x6cgrAECvHz3Yfb8JWKFGiaZiuXQqxAcoVhPKHr5xu2RaOPRizdHTp2FSQalWZIzoTQL4RTBsGs3DIJywDB68fY98OUIwej0FoRgaM6sQchQPAXI4fWFtFqCII20zoJiHIJSq1avHS6XP5SHgcV+/uJNsdiF4Xqd3oJSjAYh7R7/3fsPQS2gjbsPHMYoDqUYkjGC1Ory3rj+zbu3vP0pV9zHubOXIuEkipAYSpMEo1GjHGtas3r9u7e83Rh6X35T0e2pc5cD0QQf0etNhM4gU0Mr1qy/8Q0f9b8d/jhVBtfdvbOMNifNmSGckqq0s+YvePzi9ct3fID46PmLxy/4MTxcLm/bvrOzq6dnau/5r67d+/7hzTvfnrt8tSpbaF/VP3j6/FfXv+bf6XnmwpUFS1ba3QG5GlFBuNXp65s1f+vOfXsOHN2weceSFWsXL18zsHHbslUDyWxRp7eSjJFkTDCuQwhWb3a0dfVt3bnv8PGzW3fu27B51449Bzdv3zO4Zac3GBPJ1KzRhtN6oURpsDh1ekt376x9h46fuXDl8PEzO/ce2rXv8P7DJ8x2j0CsMNk8lbFLahBSocGmzZh78uzlpSv79x06uWnb7o1bd68Z2ERzFpzWa3GGszgI1qyEcZjkbJ7AklUDS1b1L1i2ZtmagbmLV+bbuhQQgVAswZo1GKXQIjqDuWNq3+qBwcUrVi9YumLpyv55i5ZzJjv/kiCcAUsyJGPSIFQyW/zAd8kwIAdOGCjajKAsgtDRWKp/YN3adf2r1qzuX7e+f93GQDCFEwaM0lOsCacNCg3a3Tt7Vf/g+k07Fi5dtXLt4Nr1m3HagNN6nDaoYcJgcdULJNlMaf3A5hXL+wc3bF2xvH/b1t3RSBpDaR1tNJscLGPWqFGrxb182ZpDB09s3bb76NEzu/cf2XPg2JIVa+3uIIzraM5C6Axiuba9u+/IiXPnL18/cuLcgSMnDxw5vXv/kVMXrvqjSS3OOHwhnNZPqm0w2dwbtmxfvGL1lp17wPuSNgxuOXDw6MJFy1jO5PAE5yxYevDoqbv3H1adu3Tt4pWbt+7cv3Ljm5VrN5jtHrFcww9cWo8QjBallFpMJFMLxAqpEoJxnQoitSitQSiFBlNoMBhncNpA6IxalMYoPYwzUiUslmtVEKlBKJkKwWkDhNFKLYYQDGeyU6xJi1IQRis0qBom5GqkSSRvEErFco1MBYtkajVMUqwZJTkNQmkQCq2sFsM4I1ejzVK1UkvIVIhEAcnV6MfCCRYmOS3OkJwFpQ0yDQYRrEDKvyhMpICUMIlQevCCF4hgUdqgRSkNSighVCRXNYllEiVfr0CsAHNpGGcqXGcwSq/UEtlC+0/kCGu1BIYbScqCoHoU1anUsEqtlcoUMrlSo0U1WkyhxCCY1aIMSnKMwa7QYFqUbpbyLYIwXZNIUVGFDqP0GKWHMP4CJTmBQAZDJKQlGhvEUolaqYBhiMRQHYbqtBqcIvUUqZdK1FKJGoEprZZQaDCRTFOJfB0SBSRVwjjfKFoFkTDOaBBKLNcKJSq5GtWiNITpGkQKvdUtU+OT6oSMwW6wOKVKGHRro4h/p5JGi0IwLpOrVWqYYY0yFb/eF0lk1wxsqrpx+7szF64uXt5vsnkkCkiL0iRjQggW9DeokmLNFGtGCFYFkQihlypRpZZkDA6as8lUmFSJ4rSJZCwQxqogCsJYhNBDGKtBdFqUVmoJNUyC0oQSFUbpDRaXQoPhtAElOYRgUZID9ALKQgg9Z3I1S7UoaaBYK6hIJIPUME2xVg2iA+XDOMcYHGqYRkiDXENIlPyqKUoZ1YhOi7FKiEIpoxKiFFpSCVEIaVDBtBZjccakNzuA44AwmtAZaM6M0wYYZ4BmEUKP0yYIY2Gck6mwltZufrLwoezzRTVaCsUMOGGCEQ5BWZPZgWIETlAUzdA6A4LQFG3l9C4Y55RaEiUNKGkgdGa5GldBlBqmNYhOokAgjFXDNE6bMMqo0BA6vZ1hbRCs0zFWLURbbX61hiQpEwhuEJQlSKOOseKEQcdYdYxVrkCBhiGMBSWDvSoNokMIPULoMcqIUUaUNGhRRqkl5WocpYwIaSBZO2N0kqyVHycw3ykkqScpjiBZDNehCIUiFIbSKK8To0yFNIkUNGepWr1uUzSZB5ZAi9IKDaaGSZqzKLWEFqURgoVxRgWR4GOF+yzFWjHKKFfjWpTRm906vV2mwpRaUqEhNIgOo4w4bdKiTGUM8QrCKD1gMegADUJhlF6DUCqIH1IkYwLUAXZCrsZhnCN0Zpw2qWFapsIgjNXp7YTODLbrEEKPkvzEATQeIQ1ajFVoSQjnZGoc15kpzkYwFow2UZyNZK1KiFJCFEzoMdqkgumKyeHfE4SSfPipRamRZsI4A1QMhBfL4WL71BFyqDU0DOsxzARBPDkgmIARgqRYFKO0EA4jDIoZZDIcQvlOAt2D0yaKtVKsFSH0FGulORtC6FUQRTIWntaEHsY5GGHUGhKCdThhICkTBOvUGlKlJjRaSqHEVGoCgnVaiEYxjqRMGK5nDA6MMqogCsY5krGoIEqiQEB1o0cOhLEYZdTp7WqEbZYhGpTTYvpGkUYJUazRyctAmVBUB0EkglIEzpAESxIsRXIYxvA7nTij01ur5ApUrSG1EA3BOpIycXoHQRplcgRBWRTjMFwPgGJ8M7QQrVBTEKrHSLMW4aQKXCxDVVodSphQwqTjnARtlatIsQxVQwyCGzWIrlmqBRpXQRROm3R6O4SxCg0B9mbVMA2ggigVRPHcIs1KDQ1jBqkC18Cs3uTVIpxKq1NqaJmSgFC9BmZVWh2E6iFUzxrcMGGECSOEG1DK3CxDYMKo0NJSFSGUwjI1qUZYLaaXqgiENKGUWa4heDsBUwTB6XQmGKY0GhzFOJwwgMYiqL5iGPQIqpfK0I7OGR/J4U+oNTRPC8RQIYceQWgMp1GMwnBaC+EUbaYoG4IYlBqaYuwoYZKrSLmKVGl1chWp1NASOQZjBow0q7Q6UmdTqCmUMEGoHsYMvKJgFiPNI/foOCeMGXDKQupsNOvASLNUgcuUBMXYJXJMDTEQqldDDFAURpo1MIsSJi3CqSFGi3AwZtAinAZm+WvChOhsEG7UoPrKxqEDxgz8qJMjGMbodCYcZ1GExjEGgSmFHGoWqYHFMprcVQRphGAdBOtQjINgHW+41AROGGCEgREG0BaCdYArCMobJQ2iU0MMb8pwI6EzIzhvIdUQw3ewVscbDII3mwhuhDCW5mxSJW8Mcdqk0BBSJQrjHEoaZCoMjB5ggYEnUsM8LUCrSJ0NJUwyJaHU0DhlATqVq0h+aOJGkCmWoRBukGsoJaTTGVxKSIfrrGqExXVWncGlghklpGOMbrmGUsGMFvtodZVKhJ96EBw/bhCaII1qDYmgbKXVnBZi+KgCM8jkWHfPbEAOvz82Qg6tlkUxnkwaDS6TayiaJwqMMAolgaJGlVYHYwa5ilRDDMXYCdqq0upwykIxdpmSwCmLSIoQtBXBjVIFb2ZInU2poVVaflRgpBmwX6YkZEqCoK0amG2WwFqEA9dKDU3qeH1CqJ63ChDvO3htaPnq1DDNswHn+EIQHWAJaLgG1atgRgWzvK40NEqYQL9rtQSC0AhCQxCJIjRBcGA6plThOsZapUX5QpVaUqklgXdUQRRf2U9jeqwL8O0/pAoNH+pXzCZfDkKwEMZKlagG0Sm1pEyFAacDYhGeTP+s/I/m5N95j1JLAj8NBEYIfV2TbObcxWCtIhzPNEvVGkSnQXQKNT8GQGf8OyUcVRcvqhomp9SJ6gVSnDbJVIgG0YEUJTl1xXuOup/+KG2FQP+QP6oXtBCvdhA/SJWw3uys4s3AKHIA8w6IAq4/SUkVNAZAwKyG+UmKQoOJ5Vq5GkUIVqJAMMoIYkmFhgCx3j8tn/cv/34oNIQWZQCDFRoCkGP2/KWjyKH62LoKOVRa3c/4KDBQy+8rvAahJAoIIdjlq9d/df2bBUtW0ZxFqoRlKkQs1yq1hFQJgxklQrDNUvWv1SQgh0QB8eRQw7QKohQaQqEhQJ+B0BLkjJXyM9gxIVXCCg0GYTrQAJFMI1MhWpQRy+EmkUosh6VKVCjRNEu1YxXLC/CfRWXA4SCFMLZeIJ+/eCVYk44kskKJUgWRaphUqHnLrFBTP+Oj5EAtv28rKhNGVg2T7d3Tv/vh6ZMX7xYv75epEBjnbQlG6YUSlUQBAQKJZJpfr1IMzIc5k4MnBwj75Woc8EOhIcD1OOWOzQyFBpOrUbkaVWj40sHERK5GJQre4tGcTW92U6wVmO4ROo5Txe+r3zErlakwFUSBFHjDBqFiyYp+cBohlsoLJUqlllBBfJj5My0ARf6N5BDLtQ1CmUimQUmuol5+9WFKnVCigOqapGqYt14YpQdrQmL5rx6HcjWqhkmxXMsaHVXATshUmEyFAU7I1TgIEcZU4pg2Q6HBUJJTQaRUCYtkGoFY2SRSyFQIQrB7D558+4E/k7Jw6VqZCqtrkgH7NE7h/wFaAEmkShTEy0otKZbDKohqbFauXMuvsr8rlxOZglCilKtRfhWuEi3+Az/+jeQA7hvQQiBWeoPxfYdO3rj93eLl/azR0SCUCcRKGGdEMg1wEL9WzzIVooLIZqmaMdh5csjVuFSJSpUo4AdY15Kr8XHAm4dP0SxVN4kUUiWMECxwKxil94USG7fuHdyyp6Nnlhqm65pkYKpS2ygdp/DxKv3d8yUKRK7GJQpEqSVFMkihIZpEqv4NW8HmSDJbrKwR835TpiSkChzMVD+mH3UF1PL7igosdGOzHCwUNYkU3b2zgZBLVvRDmA7EHEot0SxVC8TKX6tnqRIGv+XXORQaArBBokAAP0aIAszJJykiU40BsNoNFtcEYqVMhYCl7nqBvLZR2iRSAQoKxGqwaPNJsbzp+g8ChERiOazQEEKJRqbCBGL1+k07gN5TuZJArJAoIP61yQpcIucp8jM+Sg7U8vu2olmq1umtQM+8j6tsI4DFcpFMM7G6USzX1gukMM4otUTl218nD2ijUKLiV0iBE5EokNHkAB/HSflg51M0CGVqmJQooGapOl/qun2PPz3ww+OXLl9MizKNzUqpEtWijFyNN0u145TMy/CfAiAHsBkj5BjcshuQI51vBeSQq1FADokc+xkfxQZq+X2boNQSjc3yJhG/Hw3eAw5huromqc0VWLZqYGDj9r5ZC+qapEKJSiDmg6Rfr09+AAjESp4cMhUmUSBiOSyWwyMFgY9jphIFJJJpxHItmJsA5yeSacBsSq5Gcdqwe//RMxeuHj15PhzPjlnIHzATWM0RwaRKdFKNcM+BY4AcxfaeKXUCMEyFYggsDYtl6EdUtPfTa9p5Tf6e+Pl98D/V+DHn6Mnzz18Pv3hTPn/5pkyFCCWqiv3mw4Z6gRy4iAahQqklm6Xa8SQEc8wmkYJizVVSJT+hEMkgkQwC/BDLYfBxzHTE54HYs6ZBBLxUbaNEJNN8MalOJNM0CGXgBfiNzfIxC/kDZgLDCZQgkkESBTK5tnnfoZOjyQH8qVAMSeSYSIr8jIr2fnqfP6/J3xM//3HATzXyOc1S9eRaQde0WZ1TZ/b0zUEIVq5GxXJts1RbL5DDOCeUaIDxnlQjVMP0eBI2S9VSJdzYLCcZUxUwG81SvpQR1YCPY6a1jRKFBhNKVEAysOL26vIAABHuSURBVCUNSDp1+rwTZy6du3Sjd+Z8uRqtaRA1NsvHLOQPmAlGElACGFhT6kSHjp0B5Ch1TJ1c2yRVwlIlLBBpxTK0WQL/jIr2mqX8f4n8/k0DtfwyBcsbk2qaGoQyMGfRonRjs7yuSQZhrEgG1TZKweAXSjQC8bhyCiUqqRJuEMoInbEK2AmhRAOWp0DbwMcxU6kSFkpUQomqQSirGAZ+4tosVYNB9vJt+fT5K2CbvrZRIlfzq17/FQANF4jVIhkEVFFdLz5++iJ4MKS1c9qkGj7WE8u1Tc2aZgksFEM/42MbebX8/o0FtfwyhTDd5FoBIMT+w/xzTRev3MJpw8RqgVJL1gvkQommSaSqaZCoYbqmQTKenAKxEoS0OG2oAroQiNVNIpVArAa0EojV40GmQv4+oRrM+PnoTAl/PrFWDZMGi8vliySzJZFMM6mmaWJ1owoiaxsl45Xzx8xvEqmapVqgitpG6dmL18DjSe3dfZNqGit/MqRpFKqFYkgg0v6Mj+ri/w7m928XqOWXaW2jZGJ1Y22jRKKASMb09d3vh8rl619/a7B4/vp5tVCikavx2kapUKKpF8ilSnQ8OZtECpFMU9soQUmuqlmqFYjVjc3KxmYlUEqTSAWum0SqTwFW6BQa7C+fTZ4wuV6nt2KUnjU6OJPji0l1f/rrhCaRoq5JCkyTUDJGCZ+W+QfJaWxWNggVQommQahoEqnqmmSXrn79pvIERkfP9InVDcBGNghUTc2af8BHRSmaRPwPf2eAWn6ZVlbKsQahbEqdsEEok6mQKzfuDJXLp89f40yuz76saxAqQC8DmzGekA1CWbNUXdMgQgi2ClibBqEC/BgwY6QgUNzotLq+WSzX1jTw+4HF9qkPHvKHmL9/9KK1sxesiopkGjVMTqxurGuSVlwPT7v/CjQIFfUCuUCsrhfIwfXVm3fBY72dU2d8OaW+SaTg/alA1ShU/wM+NlDe2Cz//VsKavllWi/g//AKeITq+malluBMjkfP+LP1J858RbHWuiZZg1BRXS9WaslJNcLx5KwX8NPg6vpmGGeqgNkYIQf4Dfg4Zgp80pQ6YU/fnIdPXwNm9PTNqWuS/vXzySAo+9sXUypq4qfjYxbyx8ysF8gBOeqaZPUCab1Afv3rb0eTo7FZLhAr65uUDQKeIj+jMrRAJPj7N42PNz+FUKL6YlJdReH8CvqUOuHnE2sNFtcPj/nz5cdPX9Qg1ITJjTIVVtMgaRKpxpMT/F3aR3I0NstrGyU1DaK6Jl4dtY3SmgZJRTv8ROPLKU0gKPl8Yr1ArAbUaxKpptSJmkQqpZYkdGaFhvhiUkNdk+y/A42KukbFWKJKweCrF0gbm+VfTqkXy7V3vvvxQ+WZs/kLlv71bxMkEnV9vai2QV7bIOcL+Qm1TTIeAmktP3z/UHqQciY7eF/BiTMX5Wr0sy9rpEr4i0l1dU2yZqm2pkEyuba5UaiuqZdNmCRobFbW14sEAll1dRMMU1WAHNX1zb8gx6Qa4cRq/u4pdaIJkxvFcrhZqv3fv3zZLNUKJRqrM0jozGqYnjC58YtJDSDYqW2U/heg0rWfyjn6TwgbhNIvp9RLFNq79x+OJodYrKqra65tkNfUywBFQFrTKOXRJKlpknxa8n80RzJhcp3DGwCPK+/ce2hKnWBSTZNEAdU0SCbVCMEspq5RUd+kbBSqp9SJ6uolP5OjQaioaZBU14trG3nWj1wrNNif/joBhJ/1AumUOuH//PnzcDz7w+PXbz+Un7x4f/bijSaR6s9/nyxX43/5bMp/VAW/hpTjkKO2UVLXJAV/W1kvkHw5pV6mgu//+BQ8iLxw0fK//m2CSKQE5Kiuk/63kEMgVvzPnz9z+yP8wZSh8smzlxqb5X+fUC2Ww1PqRBOrBXyAJVDV1Muq63inUVsnbmqSTpnSCEFkVb1AXl0vnlIn4r9olI5cT64VNDbLwexDIFb+5bOJuWLn949evBvmmXHq3FWwKFvbKJ1YLQAT6JoGyX8B6mU19fwY+ASimoaPqGsSfzmlXqFBf3zyEpBj0eIVf/3bhOZmRW2tsKZeNqVWwhfyE6obJDwaxdWN4k+K/bSif2eO6P/t7sp/5Ciu8P4jSLlAsOvdmZ3pu+6zz5nZXWMbMEc4ohAFFISIoiRSOA2SrUjkEIRgiMDiCCRGkICJHQPhiBWDRJAQkpUfApGCgkQwi707h2dnouryDmbXNkYCsZvRU6u7prq6q+qrqlevqr+XNc+XSQMQed0NPzTfkH64cODVN6jMIqzz1haZzERYW6Ajmse5yWCStCiNL7jgsjGVbGSyRUXTAoepBpUF102uCyqzOJ/xIhIifte991vCkMXe8IWXX4uwdgIKaSKTGUgT29+UdzXX+lHNcGXawAoZeb5lKhdxAanafNFl8wu9Y33zteBDDz/ueiDLZoXIuJqxxWXSKYXpppG4weLGimS/7MuCiDTCopjZ5Ib45m077GrovudfQSzluqmzOSoLSBOVzqaNTVQW1oU0IXrLlkvHZDxHRZPwBpNmcKGyICJnKodUZ82N1i+1pcQwn8z3hr9/co8bMiJyO45w3WzOXQRIzFRjfYhsMdla/arWMzKVZki2TtovuPjyhe6gV9IfPPzI71wPJEmL85SrGcwKk8iyUNUwoguqi9Upf7khRBj/4qV7aOMJ+tY7fmoXBHY/tVdncxuqQdrYZHxGszRvbQEk5jzVuoGx2rz5EgMOwhuYFVSYwYWInIiUygxSXakHSTH7xluHjnb7Hy6YGfPP7rpn2gVUFl7EWxu32jHFOqKmslgfIppUmDawQmyurW2XqQxSddGlVxpepRIcj/52t+NGcdxkLGGyZYvLpFMKkYURlROVr0h2DVwauNu9eZPTftWJfn7XTku+9audD6aNTVaRgDQpqz5nLFGqQEhu2nTxmNCzhDcQNbmy4MDc+BgPEb/wkiveeOuQJWlp94c3bbt92gvLhtWM840hUhHWZTdj+ow1UAor6/vkr3QKcNhcW3BQmUKqtl52VW9wcnCY4lpGhul31zA4AFFcm8ElgNxaob569oZ77tu10DXEEw8+vNsNWQBl3tqCmPE8/wlw6GyOqUaENWIplQVisUxa41POld++5kQGgWuv//65k1NMp4jFyz7rref69XakOaL56iwAoohIAVGYJ5jHgMiLv/ktS0/Q7Q2efmZfddqT0jQszApIMpPIskCWGuEJ5MnqlNdeSIxY/Iu777Pjy30PPOID5kVmMYTKzBhyZI6xKoqNY5hnNQ/6QFCZYZ4AosannJu37bCkke2+oV656jvXnD0+mc9sRFxBqiFN1rGQDJJs9ftbWACiSvTrEPHLrrz62NCwLnV7g2f2/Lk67QmRURojmpsUThBAEyMsBixenfLaC9GQah+w+x98dH6h310a3vubh3zAEIuJSF0XmqHTTmUh1TJplMgwzeVr50z8+v5dI/aVv795SGctN8RWqan7EBAFSLyOBacAp6vfP8ISsTjCskS/8iJy1dXXmrbVN+DY8+z+6rTHWEKIhiSLUGISWZaIxEaojqhenfLaDKl5cKLi/v7JPearrd7w/gcfmag4PqCcp0nSqlZ9M1vhcVYPgA9JRHjVDZ7+03O9wfBoZ6k3GL504DWVNqfdyIuITBo1D9r5cYT1OhaURCg52ftLQFSIRIkPVffhd793g/ku4ZjBx959L1Rrvuk2kIQkC2FsElmWEGsjRIXE6GHrQuJ8tubBAPK7733AfJvTH96x486qE0YRK4qNtVrYaJw/xnSMhZys1T0AX3/TcJxZAtA/Pru/5gHMkwDypJir+/ic8Vra2LQucn66lzw1OCIsQyRCJCBVI6tip7u0NBjuf+6l6Xpgug0oAE7XEziWEbyiSQSQQ2pGz8lp78mn91ot4uZt2ysVLwiIENnc3IVjkNFpz73gkov/8fY/3583vKrdwfDhx3efN1kLEa/UQ5m06j4Rccsavk5X7uui0ZwZOKZq/o9vvM00qe7SYDj8y4sHHDey4FhnPccpwOEDVrYErrPW+FT9qWf2WV3ittt21GphvR5t3XrFWETh1ssvefvdf7WXuoePHjnSaT/02ONfOfvcpJitOmFjdosT0EoNAZwKPQtw+v8KDmBGBGk7D8T0hqp7y+3GnmjB8fIrB10PEKLX37ByCnDIpOWGNMKmm0RMj0/Vn967f7E3PHx48dZbtwcBmZnZMvaTW29574MR6V37Rzfe9PVzJ3ic1Twg4kbdJwGUQs+GMK7UEGbF2lSvPsNbnUIhhVRH+LjagXmyoerevv3OEhyGL/CvB17zPGR6DmTm/CsUUlAqpKWqvva09WWteYUaPu0CrosISyISHzBIlROgPfteMHTHC71rrr0eIj5WTtXM8sE77/znuut+MDnpSJmHIcVYIRyvltNUQ90nmGfWFgtp4oaMqYYPhBuypDjfDZkPBCCxDwSkiQ9EzcM6m/OBCKCMsNHznYB6EQ+RwjxzQ4ZYWqkDzDNrcPMiPopMZRFAacPdkEVYh0ideAlI7EXci7h9FqTGAmGsdjQNI+F6ROmWkI0wEpRlQcg9n2KSCNmIgIyAdBywfccvB4Ph4uLSYDB8/fW3pioBoalUTRsZ4TiMBICK0DQIuRsypc3Ie5ryOc1fdZ94EaeyCJGadtFpYn4Bf1lAKwvu3U/8YTgY/vf9+du3bR/74IP2YDD897uHZ+e2jk84ebFpfMIRsgGgOqnYOlh9pLLwgQiRqvsEUjMdcENWqYOsubnuk6oDQ6TsQp0TUMwza5CddtG0ixBLVTobQMl1E5C47hM7eNmdbRZnAZRE5Fw3rZXXPiVEygeCiNzWPWKpNQP7QHgR57ppn1h1oEUepIlFAON5GIlaHYaRELIBkfYDRlnmB8z1iFTNuoPu3flQrzdcWhq224ODr75ZqYZKt4KQIxwn6Rwmib1L6RaAivF8w6QHoAHoZxIv4nZfBRG5F/EIa9sYPlMin19kkSaN/fuf7/X6nU5vbDAYvvji38KQRhFLktbERC1NZwDgGKuTynLneRxoo0trQqEycwKCWOyGVKUz1qrmBERnM9MugFTb6VOIxLQLSnNTXE6P5VQtcENqFzisxdeL6IaqV/dxpR5SmVmdwF4Coir1UMSNCMsAcqZyJyB1H9d97ASEqTyA3IuoD9hExXUCAqmO89kAcicgUcRcFxKizeK7yDBWnocQkpTGShWOAxhLtG6cddY3du7cNRgMOx3DQ3vo0Nu1Wsh56nkIY1WrhQBwSmMhsslJByGpdSMICCF6VCBneEJlVnWiuo8DaNR/JyBEGDP0Gd7+eUeT4+dNMSaeeOLJfn8w9txzr4QRCQKi48L3MReJ72PGzYQeYbH6WGptxhgQ4U8cfcDKpb80RKa2KvWAqRwQ6YbUB7SsIWNFiPMZa2ViKq95Bh+AmJG+6oTFzOa6DyMsvcjACzEtE7PppkSYAUGIuA0vFwvMAhCkJs1SpYqJSMpiNea/E2P6gOpsxglQiAQRCcZKqkzKvFJ1HQckaRNj5QfIqBRUVau+kKmUeRDiXbseM3TSpZ3j4ME3AGQAcABNE8LEjDsIC0rjCJghmPEYYxWEeHXJnD6EyswHNICc65zrAjEDL0itdvyJEj59Op/Xv0lc1GpOnjeefXbvWLtjpmpWLDnawDjpODYKXHFiDfInPbb7HzsIGvlUGMW07NXvfTBvN/sfafetfxZL5G6jHe3228fMXLo3OO69xTLhL/SWuqVLABvNTsrNZouStvzDhU5vYDybmM2SpYcba9U50jk2umt+sWuf2+4s9ZcMtWi3d5yZ2m7nsUeb2U530Okudbomgt3PYVzaLBrXFuXJsVHkD+cXB8Ph/Eftdqdv/x3l9wxPRi6VDLl9mWu7b+YMb//cow2Hw/n5I8PyN2bLaP6jxU73OCAW2ybzdu/kSY8jDzcnnpSuEQyjdne5Xm2tHz5qaPpHCLAnlnvbelN4f/4jS+puvctYshSbcumLxGwVsGI934wuywcZknXLXz4KH1HEj0IsCi0P/Kiyl2u683G99gcfHWmfiBsbxyLDFsUopN3p94593K5s6S22jVXkxGL51POugfXSyGHKyG/Ep974RURYMgp4Zzg8fvwfkkBstIj8rw4AAAAASUVORK5CYII=;" vertex="1" parent="1">
          <mxGeometry x="331" y="-201.66999999999996" width="77.56" height="53" as="geometry" />
        </mxCell>
        <mxCell id="llgCV7L1ZfpWoRZDn74L-138" value="" style="endArrow=none;html=1;strokeWidth=3;strokeColor=#CC0000;dashed=1;dashPattern=1 4;" edge="1" parent="1">
          <mxGeometry width="50" height="50" relative="1" as="geometry">
            <mxPoint x="18.499999999999545" y="-304.17" as="sourcePoint" />
            <mxPoint x="58.499999999999545" y="-304.17" as="targetPoint" />
          </mxGeometry>
        </mxCell>
        <mxCell id="llgCV7L1ZfpWoRZDn74L-139" value="LSTM" style="text;html=1;align=center;verticalAlign=middle;resizable=0;points=[];autosize=1;strokeColor=none;" vertex="1" parent="1">
          <mxGeometry x="56.5" y="-314.17" width="50" height="20" as="geometry" />
        </mxCell>
        <mxCell id="llgCV7L1ZfpWoRZDn74L-140" value="&lt;span style=&quot;font-size: 10px&quot;&gt;256&lt;br&gt;x&lt;br&gt;256&lt;br&gt;&lt;/span&gt;" style="text;html=1;align=center;verticalAlign=middle;resizable=0;points=[];autosize=1;strokeColor=none;" vertex="1" parent="1">
          <mxGeometry x="117" y="-239.17000000000002" width="30" height="50" as="geometry" />
        </mxCell>
        <mxCell id="llgCV7L1ZfpWoRZDn74L-141" value="&lt;span style=&quot;font-size: 10px&quot;&gt;40&lt;/span&gt;" style="text;html=1;align=center;verticalAlign=middle;resizable=0;points=[];autosize=1;strokeColor=none;" vertex="1" parent="1">
          <mxGeometry x="42" y="-206.67000000000002" width="30" height="20" as="geometry" />
        </mxCell>
        <mxCell id="llgCV7L1ZfpWoRZDn74L-144" value="&lt;font style=&quot;font-size: 10px&quot;&gt;3&lt;/font&gt;" style="rounded=0;whiteSpace=wrap;html=1;strokeWidth=3;strokeColor=#67AB9F;" vertex="1" parent="1">
          <mxGeometry x="-238.77999999999997" y="-183.99999999999997" width="20" height="120" as="geometry" />
        </mxCell>
        <mxCell id="llgCV7L1ZfpWoRZDn74L-147" value="Traj.&lt;br&gt;Vector" style="text;html=1;align=center;verticalAlign=middle;resizable=0;points=[];autosize=1;strokeColor=none;" vertex="1" parent="1">
          <mxGeometry x="-8" y="-194.17000000000002" width="50" height="30" as="geometry" />
        </mxCell>
        <mxCell id="llgCV7L1ZfpWoRZDn74L-148" value="" style="endArrow=classic;html=1;strokeColor=#000000;strokeWidth=1;exitX=0;exitY=0.25;exitDx=0;exitDy=0;startArrow=none;startFill=0;" edge="1" parent="1">
          <mxGeometry width="50" height="50" relative="1" as="geometry">
            <mxPoint x="31.25" y="-176.70000000000036" as="sourcePoint" />
            <mxPoint x="50" y="-177" as="targetPoint" />
          </mxGeometry>
        </mxCell>
        <mxCell id="llgCV7L1ZfpWoRZDn74L-149" value="" style="endArrow=classic;html=1;strokeColor=#000000;strokeWidth=1;exitX=0;exitY=0.25;exitDx=0;exitDy=0;startArrow=none;startFill=0;" edge="1" parent="1">
          <mxGeometry width="50" height="50" relative="1" as="geometry">
            <mxPoint x="396.25" y="-179.02000000000027" as="sourcePoint" />
            <mxPoint x="415" y="-179.32" as="targetPoint" />
          </mxGeometry>
        </mxCell>
        <mxCell id="llgCV7L1ZfpWoRZDn74L-150" value="Driver&lt;br&gt;Action" style="text;html=1;align=center;verticalAlign=middle;resizable=0;points=[];autosize=1;strokeColor=none;" vertex="1" parent="1">
          <mxGeometry x="-371.78" y="-194.00000000000003" width="50" height="30" as="geometry" />
        </mxCell>
        <mxCell id="llgCV7L1ZfpWoRZDn74L-151" value="" style="endArrow=classic;html=1;strokeColor=#000000;strokeWidth=1;exitX=0;exitY=0.25;exitDx=0;exitDy=0;startArrow=none;startFill=0;" edge="1" parent="1">
          <mxGeometry width="50" height="50" relative="1" as="geometry">
            <mxPoint x="-332.53" y="-176.53000000000029" as="sourcePoint" />
            <mxPoint x="-313.78" y="-176.83" as="targetPoint" />
          </mxGeometry>
        </mxCell>
        <mxCell id="llgCV7L1ZfpWoRZDn74L-156" value="" style="endArrow=none;html=1;exitX=1;exitY=0.5;exitDx=0;exitDy=0;endFill=0;" edge="1" parent="1" source="llgCV7L1ZfpWoRZDn74L-78">
          <mxGeometry width="50" height="50" relative="1" as="geometry">
            <mxPoint x="-410" y="80" as="sourcePoint" />
            <mxPoint x="-210" as="targetPoint" />
            <Array as="points">
              <mxPoint x="180" y="-129" />
              <mxPoint x="180" y="-40" />
              <mxPoint x="180" y="-20" />
              <mxPoint x="-210" y="-20" />
            </Array>
          </mxGeometry>
        </mxCell>
        <mxCell id="llgCV7L1ZfpWoRZDn74L-157" value="" style="endArrow=none;html=1;strokeColor=#000000;exitX=1;exitY=0.5;exitDx=0;exitDy=0;endFill=0;" edge="1" parent="1" source="llgCV7L1ZfpWoRZDn74L-126">
          <mxGeometry width="50" height="50" relative="1" as="geometry">
            <mxPoint x="-450" y="220" as="sourcePoint" />
            <mxPoint x="160" y="-20" as="targetPoint" />
            <Array as="points">
              <mxPoint x="470" y="-165" />
              <mxPoint x="470" y="-20" />
            </Array>
          </mxGeometry>
        </mxCell>
        <mxCell id="llgCV7L1ZfpWoRZDn74L-160" value="" style="endArrow=classic;html=1;strokeColor=#000000;exitX=1;exitY=0.5;exitDx=0;exitDy=0;entryX=0.035;entryY=0.396;entryDx=0;entryDy=0;entryPerimeter=0;" edge="1" parent="1" source="llgCV7L1ZfpWoRZDn74L-90" target="llgCV7L1ZfpWoRZDn74L-3">
          <mxGeometry width="50" height="50" relative="1" as="geometry">
            <mxPoint x="-290" y="360" as="sourcePoint" />
            <mxPoint x="-240" y="310" as="targetPoint" />
          </mxGeometry>
        </mxCell>
        <mxCell id="llgCV7L1ZfpWoRZDn74L-161" value="" style="endArrow=classic;html=1;strokeColor=#000000;exitX=1;exitY=0.5;exitDx=0;exitDy=0;" edge="1" parent="1">
          <mxGeometry width="50" height="50" relative="1" as="geometry">
            <mxPoint x="610" y="114.71000000000001" as="sourcePoint" />
            <mxPoint x="630" y="115" as="targetPoint" />
          </mxGeometry>
        </mxCell>
        <mxCell id="llgCV7L1ZfpWoRZDn74L-162" value="Real or&lt;br&gt;Fake" style="text;html=1;align=center;verticalAlign=middle;resizable=0;points=[];autosize=1;strokeColor=none;" vertex="1" parent="1">
          <mxGeometry x="630" y="100" width="50" height="30" as="geometry" />
        </mxCell>
      </root>
    </mxGraphModel>
  </diagram>
</mxfile>
